<svg xmlns="http://www.w3.org/2000/svg" xmlns:xlink="http://www.w3.org/1999/xlink" width="96" height="110" viewBox="0 0 96 110"><defs><path id="jr02a" d="M1008 1212.16c0 12.51-4.9 24.27-13.77 33.12a46.77 46.77 0 0 1-33.23 13.71 46.77 46.77 0 0 1-33.23-13.71 46.44 46.44 0 0 1-13.76-33.12 46.38 46.38 0 0 1 11.24-30.4l-5.39-5.37a4.6 4.6 0 0 1 0-6.57l2.93-2.92a4.68 4.68 0 0 1 6.6 0l6 5.99a46.56 46.56 0 0 1 18.2-6.98v-4.23h-1.04a2.86 2.86 0 0 1-2.86-2.86v-4.96a2.86 2.86 0 0 1 2.86-2.85h16.9a2.86 2.86 0 0 1 2.86 2.85v4.96a2.86 2.86 0 0 1-2.87 2.86h-1.03v4.23a46.56 46.56 0 0 1 18.2 6.98l6-5.99a4.68 4.68 0 0 1 6.6 0l2.93 2.92a4.64 4.64 0 0 1 0 6.57l-5.4 5.37a46.38 46.38 0 0 1 11.25 30.4zm-18.79-37.45a47.6 47.6 0 0 1 4.88 4.2l.14.14.2.2.2.21 5.3-5.27c.6-.6.6-1.57 0-2.16l-2.93-2.92c-.6-.6-1.57-.6-2.17 0zm-20.03-16.15v-4.44h-16.36v4.44zm-12.46 3.12v3.85l.14-.01.86-.07.32-.02.76-.04.5-.02.59-.02a48.03 48.03 0 0 1 2.22 0l.59.02.5.02.76.04.32.02.86.07h.14v-3.84zm-29.35 17.78l.2-.2.2-.2.14-.14.38-.38a47.55 47.55 0 0 1 4.5-3.83l-5.62-5.6a1.53 1.53 0 0 0-2.17 0l-2.93 2.91a1.52 1.52 0 0 0 0 2.17zm77.5 32.7c0-22.23-16.75-40.64-38.33-43.36-.4-.05-.79-.1-1.18-.13l-.38-.04a46.03 46.03 0 0 0-2.42-.15h-.2c-.9-.03-1.81-.03-2.72 0h-.2a48.73 48.73 0 0 0-2.42.15l-.38.04-1.19.13c-21.57 2.73-38.32 21.13-38.32 43.36 0 24.1 19.68 43.72 43.87 43.72 24.19 0 43.87-19.61 43.87-43.71zm-5.68 5.7a38.42 38.42 0 0 1-12.86 23.34 38.67 38.67 0 0 1-63.52-23.36 1.56 1.56 0 1 1 3.1-.46 35.3 35.3 0 0 0 11.81 21.46 35.53 35.53 0 0 0 58.37-21.45 1.56 1.56 0 0 1 3.1.46zm-1.32-9.6l-.23.01c-.76 0-1.43-.56-1.55-1.33a35.3 35.3 0 0 0-11.81-21.46 35.53 35.53 0 0 0-58.37 21.45 1.56 1.56 0 0 1-3.1-.46 38.43 38.43 0 0 1 12.87-23.34 38.67 38.67 0 0 1 63.5 23.35c.13.86-.46 1.65-1.31 1.77zm-16.22 8.05v8.96c0 5.44-3.58 7.44-8.2 7.44-4.67 0-8.2-2-8.2-7.44v-8.96c0-5.44 3.53-7.44 8.2-7.44 4.62 0 8.2 2 8.2 7.44zm-4.37 0c0-2.47-1.46-3.56-3.83-3.56-2.36 0-3.76 1.09-3.76 3.56v8.96c0 2.48 1.4 3.57 3.76 3.57 2.37 0 3.83-1.1 3.83-3.57zm-3.65-28.06c0 .36-.06.66-.18.96l-22.28 44.29c-.36.72-1.21 1.14-2.06 1.14a2.34 2.34 0 0 1-2.37-2.23c0-.3.06-.6.24-.91l22.28-44.46c.37-.8 1.1-1.1 1.82-1.1 1.22 0 2.55.91 2.55 2.3zm-18.81 7.5v8.95c0 5.44-3.59 7.44-8.2 7.44-4.67 0-8.2-2-8.2-7.44v-8.95c0-5.45 3.53-7.44 8.2-7.44 4.61 0 8.2 2 8.2 7.44zm-4.38 0c0-2.48-1.45-3.57-3.82-3.57s-3.76 1.09-3.76 3.57v8.95c0 2.48 1.4 3.57 3.76 3.57 2.37 0 3.82-1.09 3.82-3.57z"/></defs><g><g transform="translate(-913 -1150)"><use xlink:href="#jr02a"/></g></g></svg>