<svg xmlns="http://www.w3.org/2000/svg" xmlns:xlink="http://www.w3.org/1999/xlink" width="103" height="108" viewBox="0 0 103 108"><defs><path id="2a6aa" d="M1397.28 1255.57a4.66 4.66 0 0 1-3.38 1.46h-90.77a4.66 4.66 0 0 1-4.63-4.94l.23-4.13a1.48 1.48 0 0 1 2.96.17l-.24 4.14a1.67 1.67 0 0 0 1.68 1.8h12.02v-16.56a1.48 1.48 0 1 1 2.96 0v16.56h60.8v-16.56a1.48 1.48 0 0 1 2.96 0v16.56h12.03c.47 0 .9-.2 1.22-.53.32-.34.48-.79.45-1.26l-.9-15.68c-.32-5.2-3.71-9.69-8.63-11.43l-20.38-7.2-.6.6-.67.68a22.23 22.23 0 0 1-15.88 6.55 22.28 22.28 0 0 1-15.87-6.55l-.67-.68-.6-.6-20.38 7.2a12.99 12.99 0 0 0-8.64 11.44l-.06 1a1.48 1.48 0 1 1-2.96-.16l.06-1.01c.4-6.41 4.57-11.93 10.61-14.06l20.58-7.27c.95-.33 2.02-.1 2.73.61l1.6-.8a14.6 14.6 0 0 1-13.44-15.72c.1-1.28.22-2.57.33-3.83a5.82 5.82 0 0 1-2.82-5v-6.8c0-1.8.82-3.42 2.11-4.49V1174c0-11.6 9.44-21.03 21.04-21.03h12.76c11.6 0 21.04 9.43 21.04 21.03v5.16a5.81 5.81 0 0 1 2.11 4.48v6.81a5.83 5.83 0 0 1-2.81 4.99l.33 3.76a14.6 14.6 0 0 1-13.45 15.72l1.6.8c.72-.7 1.79-.94 2.73-.6l20.58 7.26a15.94 15.94 0 0 1 10.62 14.05l.9 15.67a4.65 4.65 0 0 1-1.26 3.47zm-24.68-56.13l-.06-.79a9.6 9.6 0 0 1-8.68 5.43h-5.29a4.03 4.03 0 0 1-3.78 2.65h-3.46a4.03 4.03 0 0 1 0-8.05h3.46c1.66 0 3.08 1 3.7 2.44h5.37a6.65 6.65 0 0 0 6.15-4.08l-.31.02h-2.49a17.5 17.5 0 0 1-.75 2.36 1.48 1.48 0 0 1-2.75-1.1c.62-1.57.94-3.09.95-4.51v-13.7a21.53 21.53 0 0 1-19.8 3.07l-12.5-4.23v14.91c.05 4.85 3.8 10.54 8.31 13.3h.02l.49.29.04.02a13.66 13.66 0 0 0 1 .5l.16.07a13.67 13.67 0 0 0 .46.18l.06.02a11.53 11.53 0 0 0 .43.15l.08.02.5.14c3.99 1.01 5 1.01 8.97.02l.2-.04c.13-.04.27-.07.4-.12l.06-.01.37-.12h.01c.84-.3 1.7-.7 2.55-1.23l.1-.06a16.9 16.9 0 0 0 2.6-2.04 1.48 1.48 0 0 1 2.04 2.14c-.83.8-1.7 1.5-2.59 2.1v2.81h2.4a11.5 11.5 0 0 0 8.55-3.75 11.48 11.48 0 0 0 3.03-8.81zm-39.93-23.52l13.14 4.46a18.59 18.59 0 0 0 17.8-3.2 2.44 2.44 0 0 1 2.93-.11c.12-.02.24-.03.37-.03h2.79l.26.01h.01a62.6 62.6 0 0 0-.84-4.07 16.49 16.49 0 0 0-4.8-8.35 13.67 13.67 0 0 0-9.47-3.5h-12.69c-3.71 0-6.9 1.18-9.47 3.5a16.5 16.5 0 0 0-4.8 8.35 62.05 62.05 0 0 0-.83 4l.26-.02h2.45a2.46 2.46 0 0 1 2.9-1.04zm23.12 26.68l.01-.2a1.06 1.06 0 0 0-1.01-.76h-3.46a1.07 1.07 0 0 0 0 2.13h3.46c.5 0 .94-.36 1.04-.84-.03-.1-.04-.22-.04-.33zm16.43-21.82h-1.76c-.56 0-1.05-.31-1.3-.78h-1.54v14.1h1.54c.25-.47.74-.78 1.3-.78h1.76c.09 0 .18 0 .27-.02h.09a2.4 2.4 0 0 0 .53-.13 2.86 2.86 0 0 0 1.97-2.72v-6.8a2.86 2.86 0 0 0-2.86-2.87zm-48.16-6.78v2.96c.31-1.82.64-3.4.96-4.7 1.7-6.8 7.09-14.09 17.15-14.09h12.69c10.05 0 15.45 7.28 17.14 14.1.33 1.3.65 2.87.97 4.7V1174c0-9.96-8.11-18.07-18.08-18.07h-12.76c-9.96 0-18.07 8.1-18.07 18.07zm.22 19.19l.17.02.09.02.27.01h1.75c.57 0 1.06.32 1.3.78h1.54v-.15-13.95h-1.54c-.25.47-.74.79-1.3.79h-1.75a2.87 2.87 0 0 0-2.86 2.86v6.8c0 1.27.82 2.35 1.96 2.72l.1.04a3.03 3.03 0 0 0 .27.06zM1336 1212h2.4v-2.77c-4.15-2.79-7.51-7.5-8.61-12.25h-2.46c-.68 0-1.3-.3-1.7-.78H1324.7l-.29 3.24c-.27 3.27.8 6.4 3.03 8.81a11.5 11.5 0 0 0 8.55 3.75zm25.48 5.92l-4.16-2.1a2.54 2.54 0 0 1-1.66-2.39v-2.64a13.71 13.71 0 0 1-1.87.61l-.2.05c-.54.14-1.05.26-1.52.36h-.01l-.32.07h-.03a18.66 18.66 0 0 1-.63.13h-.03l-.27.05-.05.01-.25.04-.06.01-.22.03-.08.01-.22.03h-.08c-.06.02-.13.02-.2.03h-.08l-.2.02-.09.01-.19.01h-.09l-.18.01H1347.85l-.17-.01-.11-.01-.18-.02h-.1l-.19-.02-.1-.01-.18-.03-.13-.01-.17-.03-.13-.01a16.77 16.77 0 0 1-.3-.05l-.21-.04-.12-.02-.2-.04-.13-.02-.22-.05-.12-.02-.27-.06-.08-.02-.28-.06-.09-.02-.3-.08-.08-.01a76.76 76.76 0 0 1-1.4-.37l-.18-.05a14.5 14.5 0 0 1-.8-.3l-.24-.08v2.6c0 1.08-.67 2.03-1.66 2.4l-4.17 2.09.06.04.6.52.06.05.66.51.69.49c.02 0 .04.02.05.03l.67.43.1.06.66.39.11.06a18.37 18.37 0 0 0 1.5.72l.1.05.72.3.07.02a19.76 19.76 0 0 0 1.58.52l.07.02.77.2.1.02.77.16.12.02.76.12.13.02.78.09h.1l.81.06h.08a19.64 19.64 0 0 0 1.7 0h.08a20.59 20.59 0 0 0 1.7-.15l.12-.02a19.95 19.95 0 0 0 1.65-.3c.04 0 .07-.02.1-.03.26-.06.52-.12.78-.2l.06-.01a19.1 19.1 0 0 0 1.59-.52l.06-.02.74-.3.09-.04a18.87 18.87 0 0 0 1.5-.74l.1-.05.67-.4c.03 0 .06-.03.09-.04l.67-.44.06-.03a19.38 19.38 0 0 0 2.06-1.61zm13.56 23.43v3.13a3.1 3.1 0 0 1-3.09 3.08h-12.1a3.1 3.1 0 0 1-3.09-3.08v-3.13a3.1 3.1 0 0 1 3.1-3.09h12.1a3.1 3.1 0 0 1 3.08 3.09zm-2.96 0a.13.13 0 0 0-.13-.12h-12.1a.13.13 0 0 0-.12.12v3.13c0 .06.05.12.12.12h12.1c.07 0 .13-.05.13-.12z"/></defs><g><g transform="translate(-1297 -1151)"><use xlink:href="#2a6aa"/></g></g></svg>