<?xml version="1.0" standalone="no"?>
<!DOCTYPE svg PUBLIC "-//W3C//DTD SVG 1.1//EN" "http://www.w3.org/Graphics/SVG/1.1/DTD/svg11.dtd" >
<svg>
<metadata>
Created by FontForge 20090914 at Tue Dec 12 15:03:16 2017
 By www-data
Copyright (C) 1995; Type Market Ltd. Moscow, 119136, Box 20; phone:(095)1427712; Created by A.Kustov
</metadata>
<defs>
<font id="Europe-Bold" horiz-adv-x="720" >
  <font-face 
    font-family="Europe"
    font-weight="700"
    font-stretch="normal"
    units-per-em="1000"
    panose-1="0 0 0 0 0 0 0 0 0 0"
    ascent="800"
    descent="-200"
    x-height="525"
    cap-height="750"
    bbox="-19 -237 1267 969"
    underline-thickness="75"
    underline-position="-76"
    unicode-range="U+0020-U+2122"
  />
<missing-glyph horiz-adv-x="763" 
d="M47 0v763h669v-763h-669zM669 47v669h-575v-669h575z" />
    <glyph glyph-name=".notdef" horiz-adv-x="763" 
d="M47 0v763h669v-763h-669zM669 47v669h-575v-669h575z" />
    <glyph glyph-name="space" unicode=" " horiz-adv-x="360" 
 />
    <glyph glyph-name="exclam" unicode="!" horiz-adv-x="349" 
d="M256 164v-164h-162v164h162zM268 750l-12 -454h-162l-12 454h186z" />
    <glyph glyph-name="quotedbl" unicode="&#x22;" horiz-adv-x="442" 
d="M41 750h138v-130l-42 -129h-54l-42 129v130zM263 750h138v-130l-42 -129h-54l-42 129v130z" />
    <glyph glyph-name="numbersign" unicode="#" 
d="M283 749h106l-40 -209h101l40 209h104l-39 -209h80v-115h-98l-24 -130h94v-115h-118l-33 -180h-106l33 180h-101l-33 -180h-106l33 180h-91v115h113l24 130h-96v115h117zM328 425l-24 -130h102l26 130h-104z" />
    <glyph glyph-name="dollar" unicode="$" 
d="M309 462l97.002 -8.99902c74.667 -6.66699 126.667 -14 156 -22c46 -12.667 79.333 -32.667 100 -60c23.333 -31.333 35 -77 35 -137c0 -90.667 -21.833 -153.334 -65.5 -188.001s-118.834 -52 -225.501 -52v-92h-97v92c-100.667 0 -171.334 15 -212.001 45
c-49.333 36.667 -74 106 -74 208h180c0 -43.333 8 -71 24 -83c12.667 -9.33301 40 -14 82 -14h97c40 0 67.667 4.66699 83 14c18.667 11.333 28 32.333 28 63c0 28 -7.5 47.333 -22.5 58s-44.5 16 -88.5 16l-97 7c-113.333 0 -189 17.333 -227 52
c-32.667 29.333 -49 84.666 -49 165.999c0 93.333 19.167 155 57.5 185s111.166 45 218.499 45v82h97v-82c91.333 0 155.333 -12.333 192 -37c49.333 -33.333 74 -97.666 74 -192.999h-175c0 32 -6.16699 52.333 -18.5 61s-36.5 13 -72.5 13h-97
c-35.333 0 -59 -3.66699 -71 -11c-16.667 -10 -25 -31 -25 -63c0 -24 5.83301 -39.833 17.5 -47.5s37.834 -13.167 78.501 -16.5z" />
    <glyph glyph-name="percent" unicode="%" horiz-adv-x="907" 
d="M742 750l-443 -750h-120l443 750h120zM718 375c64 0 106.333 -7.33203 127 -21.999c26 -18 39 -55.667 39 -113v-110c0 -56.667 -13 -94.334 -39 -113.001c-21.333 -15.333 -63.333 -23 -126 -23s-104 7.33301 -124 22c-24 18 -36 55.667 -36 113v110
c0 57.333 12 95 36 113c20.667 15.333 61.667 23 123 23zM718 288.001c-26.667 0 -43.168 -2.83203 -49.501 -8.49902s-9.5 -22.834 -9.5 -51.501v-83c0 -29.333 3.33301 -47.333 10 -54s23 -10 49 -10c28 0 45.333 2.66699 52 8c9.33301 7.33301 14 26 14 56v83
c0 28 -3.66699 45 -11 51s-25.666 9 -54.999 9zM181.999 756.002c64 0 106.333 -7.33203 127 -21.999c26 -18 39 -55.667 39 -113v-110c0 -56.667 -13 -94.334 -39 -113.001c-21.333 -15.333 -63.333 -23 -126 -23s-104 7.33301 -124 22c-24 18 -36 55.667 -36 113v110
c0 57.333 12 95 36 113c20.667 15.333 61.667 23 123 23zM181.999 669.003c-26.667 0 -43.168 -2.83203 -49.501 -8.49902s-9.5 -22.834 -9.5 -51.501v-83c0 -29.333 3.33301 -47.333 10 -54s23 -10 49 -10c28 0 45.333 2.66699 52 8c9.33301 7.33301 14 26 14 56v83
c0 28 -3.66699 45 -11 51s-25.666 9 -54.999 9z" />
    <glyph glyph-name="ampersand" unicode="&#x26;" horiz-adv-x="774" 
d="M671 0l-69.0029 61.9971c-22 -29.333 -53 -49.333 -93 -60c-30 -8 -73 -12 -129 -12c-111.333 0 -189.666 13 -234.999 39c-60.667 34.667 -91 102.334 -91 203.001c0 58.667 8 103.334 24 134.001c21.333 41.333 57.666 62 108.999 62
c-23.333 20.667 -38.666 39.167 -45.999 55.5s-11 40.166 -11 71.499c0 81.333 20.667 136.333 62 165c34.667 24 97.334 36 188.001 36c94.667 0 159.334 -11.333 194.001 -34c44 -28.667 66 -85.667 66 -171v-38h-172c0 42 -4.5 68.167 -13.5 78.5
s-33.833 15.5 -74.5 15.5c-26 0 -43.5 -4.16699 -52.5 -12.5s-13.5 -26.166 -13.5 -53.499c0 -16 3.33301 -29.667 10 -41c4.66699 -8 14.667 -19 30 -33l182 -164v99h161v-147c0 -23.333 -6.66699 -47.666 -20 -72.999l83 -75zM482.997 168.997l-199 172.001
c-20.667 -2.66699 -33.5 -9.16699 -38.5 -19.5s-7.5 -33.5 -7.5 -69.5c0 -42.667 12.333 -71.334 37 -86.001c19.333 -11.333 54.333 -17 105 -17c38 0 72.333 6.66699 103 20z" />
    <glyph glyph-name="quotesingle" unicode="'" horiz-adv-x="220" 
d="M41 750h138v-130l-42 -129h-54l-42 129v130z" />
    <glyph glyph-name="parenleft" unicode="(" horiz-adv-x="385" 
d="M328 756l0.000976562 -161.999c-34.667 0 -56.834 -9.83301 -66.501 -29.5s-14.5 -52.834 -14.5 -99.501v-324c0 -37.333 5.33301 -66.666 16 -87.999c14 -27.333 36 -41 66 -41v-162c-121.333 0 -199 24 -233 72c-26 36.667 -39 118.667 -39 246v264
c0 88 3.33301 147.667 10 179c10.667 51.333 34 87.666 70 108.999c40 24 103.667 36 191 36z" />
    <glyph glyph-name="parenright" unicode=")" horiz-adv-x="385" 
d="M57 594l-0.000976562 161.999c86 0 149 -12 189 -36c36.667 -22 60.334 -58 71.001 -108c7.33301 -34 11 -94 11 -180v-264c0 -128.667 -12.333 -210.667 -37 -246c-33.333 -48 -111 -72 -233 -72v162c26.667 0 46.667 8.33301 60 25s20 51.334 20 104.001v324
c0 37.333 -1.66699 63 -5 77c-8.66699 34.667 -34 52 -76 52z" />
    <glyph glyph-name="asterisk" unicode="*" 
d="M565 564l-125 -39l75 -107l-73 -56l-78 112l-84 -111l-76 55l78 108l-127 46l32 88l126 -45v136h93v-136l130 45z" />
    <glyph glyph-name="plus" unicode="+" horiz-adv-x="600" 
d="M242 334v190h115v-190h193v-115h-193v-199h-115v199h-192v115h192z" />
    <glyph glyph-name="comma" unicode="," horiz-adv-x="360" 
d="M95 164h161.999v-164c0 -52.667 -12 -89.5 -36 -110.5s-69.333 -31.5 -136 -31.5v74c28.667 0 47.834 4.83301 57.501 14.5s14.5 27.5 14.5 53.5h-62v164z" />
    <glyph glyph-name="hyphen" unicode="-" horiz-adv-x="600" 
d="M50 219v115h500v-115h-500z" />
    <glyph glyph-name="period" unicode="." horiz-adv-x="360" 
d="M252 164v-164h-162v164h162z" />
    <glyph glyph-name="slash" unicode="/" horiz-adv-x="637" 
d="M608 750l-441 -863h-137l441 863h137z" />
    <glyph glyph-name="zero" unicode="0" horiz-adv-x="724" 
d="M362 757c101.333 0 173 -12.333 215 -37c64.667 -38 97 -113.667 97 -227v-236c0 -113.333 -32 -189.333 -96 -228c-43.333 -26 -115.333 -39 -216 -39c-128 0 -213 23.333 -255 70c-38 42 -57 107.667 -57 197v236c0 113.333 32 189 96 227c42 24.667 114 37 216 37z
M362 601c-51.333 0 -84.001 -7.33301 -98.001 -22c-16.667 -17.333 -25 -56.666 -25 -117.999v-172c0 -62 7.66699 -101.333 23 -118s48.666 -25 99.999 -25c50.667 0 83.834 8.33301 99.501 25s23.5 55.667 23.5 117v175c0 61.333 -7.66699 99.666 -23 114.999
s-48.666 23 -99.999 23z" />
    <glyph glyph-name="one" unicode="1" 
d="M558 750v-750h-200v573l-194 -177l-113 128l273 226h234z" />
    <glyph glyph-name="two" unicode="2" 
d="M653 156l-0.00195312 -156.001h-591v156c0 83.333 15.833 140.833 47.5 172.5s103.834 59.5 216.501 83.5c66.667 14 106.334 26 119.001 36s19 32.667 19 68s-7.33301 58.333 -22 69s-42.667 16 -84 16c-46 0 -75.333 -5 -88 -15s-19 -34.333 -19 -73v-36h-189v37
c0 96 25.333 162 76 198c42.667 30 116 45 220 45c100.667 0 171.667 -13 213 -39c54.667 -34.667 82 -100.667 82 -198c0 -80.667 -14.667 -136.667 -44 -168c-25.333 -27.333 -79.333 -52.333 -162 -75l-129 -30c-44.667 -11.333 -67 -41.666 -67 -90.999h402z" />
    <glyph glyph-name="three" unicode="3" 
d="M252 499h-188.998v26c0 98.667 26.667 164 80 196c40 24 115 36 225 36c84.667 0 147.334 -9.66699 188.001 -29c64.667 -30.667 97 -88.667 97 -174c0 -48 -7.33301 -85 -22 -111c-18.667 -33.333 -49.334 -52.666 -92.001 -57.999v-8c44.667 0 77 -15.667 97 -47
c17.333 -26.667 26 -64.334 26 -113.001c0 -89.333 -27.667 -151.333 -83 -186c-44 -27.333 -114.333 -41 -211 -41c-71.333 0 -124 3.66699 -158 11c-50 10.667 -87.333 31.667 -112 63c-28.667 36 -43 87.667 -43 155v40h189v-25c0 -38 10.333 -63 31 -75
c15.333 -8.66699 43.333 -13 84 -13c45.333 0 74.666 4.66699 87.999 14c17.333 12 26 39 26 81c0 28 -5.66699 46 -17 54c-14.667 10.667 -47 16 -97 16h-48v145h48c47.333 0 76.666 3.5 87.999 10.5s17 23.833 17 50.5c0 34 -4.66699 55.667 -14 65
c-12.667 12.667 -43 19 -91 19c-38.667 0 -66.167 -6 -82.5 -18s-24.5 -35 -24.5 -69v-15z" />
    <glyph glyph-name="four" unicode="4" 
d="M618 750v-457h64v-145h-64v-148h-190v148h-392v214l287 388h295zM428 293v303h-7l-228 -303h235z" />
    <glyph glyph-name="five" unicode="5" 
d="M83 750h542.001v-145h-370v-144c24 25.333 45.167 40.833 63.5 46.5s52.166 8.5 101.499 8.5c89.333 0 151.333 -19 186 -57c32.667 -36 49 -99 49 -189c0 -114 -23.333 -190.333 -70 -229c-41.333 -34 -119.333 -51 -234 -51c-99.333 0 -170 14.333 -212 43
c-49.333 33.333 -74 93.666 -74 180.999h190c0 -28 9 -47 27 -57c13.333 -7.33301 36.333 -11 69 -11c46.667 0 76.667 5 90 15c16.667 12.667 25 42 25 88c0 50.667 -5.33301 82.334 -16 95.001c-13.333 15.333 -46.666 23 -99.999 23c-34.667 0 -57.834 -2 -69.501 -6
s-20.167 -14.333 -25.5 -31h-172v420z" />
    <glyph glyph-name="six" unicode="6" 
d="M343 146c54 0 87.668 4.99805 101.001 14.998s20 35.333 20 76c0 28.667 -7.83301 46.167 -23.5 52.5s-48.167 9.5 -97.5 9.5c-40 0 -66 -3.66699 -78 -11s-18 -25.666 -18 -54.999c0 -35.333 5.66699 -58.666 17 -69.999s37.666 -17 78.999 -17zM660.001 520.998
h-190.001c0 35.333 -7.16699 57.5 -21.5 66.5s-41.833 13.5 -82.5 13.5c-48.667 0 -79.667 -5 -93 -15c-17.333 -12.667 -26 -42.667 -26 -90v-118c12.667 33.333 31 55.333 55 66c16.667 7.33301 44.667 11 84 11c98 0 164.333 -11.333 199 -34
c45.333 -29.333 68 -89.666 68 -180.999c0 -99.333 -23.667 -167 -71 -203c-41.333 -31.333 -113.333 -47 -216 -47c-124 0 -206.333 19.667 -247 59s-61 122 -61 248v188c0 111.333 24 185.666 72 222.999c42 32.667 120.667 49 236 49
c122.667 0 203.334 -17.667 242.001 -53c34.667 -32 52 -82.333 52 -151v-32z" />
    <glyph glyph-name="seven" unicode="7" 
d="M624 750v-168l-249 -582h-210l253 586h-360v164h566z" />
    <glyph glyph-name="eight" unicode="8" 
d="M358 309c-48 0 -78.999 -4.49902 -92.999 -13.499s-21 -30.833 -21 -65.5c0 -32.667 8.16699 -54.834 24.5 -66.501s46.166 -17.5 89.499 -17.5c53.333 0 86.333 5.5 99 16.5s19 34.5 19 70.5c0 34 -6.5 55.167 -19.5 63.5s-45.833 12.5 -98.5 12.5zM360.001 601.001
c-42.667 0 -70.3311 -4.33398 -82.998 -13.001s-19 -29.667 -19 -63c0 -30 7.16699 -49.333 21.5 -58s41.166 -13 80.499 -13c44 0 72.5 4.33301 85.5 13s19.5 30.334 19.5 65.001c0 28 -5.33301 46 -16 54c-12.667 10 -42.334 15 -89.001 15zM191.004 380
l0.000976562 6.99805c-44.667 11.333 -76.167 30.333 -94.5 57s-27.5 64.667 -27.5 114c0 63.333 17.667 111 53 143c41.333 37.333 120.666 56 237.999 56c98 0 167 -10.333 207 -31c58 -30 87 -89 87 -177c0 -51.333 -7.33301 -87.5 -22 -108.5
s-45.334 -38.833 -92.001 -53.5v-7c45.333 -6 78.333 -25.333 99 -58c17.333 -27.333 26 -65.666 26 -114.999c0 -90 -29.667 -151 -89 -183c-42.667 -22.667 -114.667 -34 -216 -34c-97.333 0 -168 11.667 -212 35c-62 32.667 -93 93.334 -93 182.001
c0 48 10.667 87.667 32 119c24.667 36 59.334 54 104.001 54z" />
    <glyph glyph-name="nine" unicode="9" 
d="M374 451c40 0 65.999 3.66992 77.999 11.0029s18 25.666 18 54.999c0 35.333 -5.66699 58.166 -17 68.499s-37.666 15.5 -78.999 15.5c-55.333 0 -89.5 -4.33301 -102.5 -13s-19.5 -33.334 -19.5 -74.001c0 -28 9.33301 -46 28 -54c14 -6 45.333 -9 94 -9z
M57.999 225.003l190 0.00488281c0 -34.667 8 -57 24 -67c12.667 -8 39.334 -12 80.001 -12c48 0 79 5.33301 93 16c16.667 13.333 25 43.666 25 90.999v120l-5 1c-12 -34.667 -29.333 -57.334 -52 -68.001c-16 -7.33301 -43.333 -11 -82 -11
c-98.667 0 -165.334 11.333 -200.001 34c-45.333 29.333 -68 89.666 -68 180.999c0 98.667 24 166 72 202c40.667 30 112.667 45 216 45c124 0 206.333 -19.333 247 -58s61 -120.667 61 -246v-188c0 -110.667 -24 -185.334 -72 -224.001c-42 -34 -120.333 -51 -235 -51
c-123.333 0 -204 17.333 -242 52c-34.667 31.333 -52 81.666 -52 150.999v32z" />
    <glyph glyph-name="colon" unicode=":" horiz-adv-x="360" 
d="M251 164v-164h-162v164h162zM251 525v-164h-162v164h162z" />
    <glyph glyph-name="semicolon" unicode=";" horiz-adv-x="360" 
d="M95 164h161.999v-164c0 -52.667 -12 -89.5 -36 -110.5s-69.333 -31.5 -136 -31.5v74c28.667 0 47.834 4.83301 57.501 14.5s14.5 27.5 14.5 53.5h-62v164zM256.999 525v-164h-162v164h162z" />
    <glyph glyph-name="less" unicode="&#x3c;" horiz-adv-x="600" 
d="M550 525v-128l-338 -119l338 -121v-128l-500 188v120z" />
    <glyph glyph-name="equal" unicode="=" horiz-adv-x="600" 
d="M50 449h500v-115h-500v115zM50 219h500v-115h-500v115z" />
    <glyph glyph-name="greater" unicode="&#x3e;" horiz-adv-x="600" 
d="M50 525l500 -188v-120l-500 -188v128l338 119l-338 121v128z" />
    <glyph glyph-name="question" unicode="?" horiz-adv-x="605" 
d="M218 532l-172.002 -0.00292969v31c0 79.333 23.667 133 71 161c36 21.333 99.667 32 191 32c87.333 0 148.333 -10.667 183 -32c46 -28 69 -81.667 69 -161c0 -62 -10.667 -106.667 -32 -134c-17.333 -22.667 -55 -46.667 -113 -72
c-21.333 -9.33301 -35.666 -18.166 -42.999 -26.499s-11 -20.166 -11 -35.499v-30h-172v30c0 48.667 7.33301 84 22 106c17.333 26 52.666 50 105.999 72c26.667 10.667 45.334 22.667 56.001 36s16 31.333 16 54c0 25.333 -6.16699 42 -18.5 50s-33.166 12 -62.499 12
c-30 0 -51.333 -3.33301 -64 -10c-17.333 -9.33301 -26 -26.666 -26 -51.999v-31zM355.998 163.997v-164h-162v164h162z" />
    <glyph glyph-name="at" unicode="@" horiz-adv-x="760" 
d="M293 351c0 -25.333 6.33398 -46.501 19.001 -63.501s31 -25.5 55 -25.5c30 0 54.5 11.167 73.5 33.5s28.5 48.5 28.5 78.5c0 24.667 -7.16699 44.834 -21.5 60.501s-33.833 23.5 -58.5 23.5c-26.667 0 -49.334 -11 -68.001 -33s-28 -46.667 -28 -74zM498.001 505.999
l9.99902 50.999h95l-49 -292l-3 -23c0 -8.66699 5 -13 15 -13c23.333 0 45 17.5 65 52.5s30 78.833 30 131.5c0 79.333 -24.667 141.333 -74 186s-113.333 67 -192 67c-82.667 0 -149.834 -27.833 -201.501 -83.5s-77.5 -125.5 -77.5 -209.5
c0 -87.333 27.667 -157.333 83 -210s126.333 -79 213 -79c36.667 0 71 6 103 18s61.333 28.333 88 49h99c-36.667 -50.667 -80 -89.5 -130 -116.5s-106 -40.5 -168 -40.5c-108.667 0 -200.5 35.833 -275.5 107.5s-112.5 162.167 -112.5 271.5c0 107.333 37 198 111 272
s164.333 111 271 111c87.333 0 166 -29.333 236 -88c74 -62 111 -136.333 111 -223c0 -76 -24.833 -143.5 -74.5 -202.5s-108.167 -88.5 -175.5 -88.5c-17.333 0 -31.333 4 -42 12s-16 20.333 -16 37l-2 2c-26.667 -31.333 -58.667 -47 -96 -47
c-45.333 0 -84.666 17.333 -117.999 52s-50 76.334 -50 125.001c0 62 18.333 115 55 159c39.333 47.333 89 71 149 71c26 0 49.333 -4.83301 70 -14.5s38.334 -24.5 53.001 -44.5z" />
    <glyph glyph-name="A" unicode="A" horiz-adv-x="767" 
d="M519 129h-269l-37 -129h-208l225 750h304l228 -750h-204zM478 274l-92 326l-93 -326h185z" />
    <glyph glyph-name="B" unicode="B" horiz-adv-x="753" 
d="M65 0l-0.000976562 750.001h394c82.667 0 140.667 -11.333 174 -34c42 -28.667 63 -81.334 63 -158.001c0 -53.333 -7 -92 -21 -116c-17.333 -30.667 -49.666 -49.667 -96.999 -57v-8c50.667 0 86 -16 106 -48c16 -26 24 -66 24 -120c0 -85.333 -21 -143 -63 -173
c-34 -24 -94.667 -36 -182 -36h-398zM264.999 586.001v-136h144c36 0 59.5 4.5 70.5 13.5s16.5 28.5 16.5 58.5c0 24 -4 40.667 -12 50s-25 14 -51 14h-168zM264.999 311.001v-147h151c33.333 0 57 5.33301 71 16s21 30.667 21 60c0 30 -6 49.333 -18 58s-35.333 13 -70 13
h-155z" />
    <glyph glyph-name="C" unicode="C" horiz-adv-x="750" 
d="M705 481l-206 -0.000976562v29c0 27.333 -12 47 -36 59c-19.333 9.33301 -48.333 14 -87 14c-54 0 -89 -10.333 -105 -31c-13.333 -17.333 -20 -54.666 -20 -111.999v-117c0 -62.667 5.66699 -103 17 -121c16 -25.333 52 -38 108 -38c46 0 76.667 4.66699 92 14
c20.667 12.667 31 39.334 31 80.001v22h206v-22c0 -104.667 -21.5 -175.5 -64.5 -212.5s-123.833 -55.5 -242.5 -55.5c-84 0 -144.667 4.33301 -182 13c-56 13.333 -97.667 39.333 -125 78c-30.667 44 -46 109.667 -46 197v194c0 115.333 31.333 193.666 94 234.999
c50 33.333 136.333 50 259 50c105.333 0 181.333 -17 228 -51c52.667 -38 79 -103.333 79 -196v-29z" />
    <glyph glyph-name="D" unicode="D" horiz-adv-x="792" 
d="M65 0v749.999h380c106 0 182.833 -22.167 230.5 -66.5s71.5 -119.166 71.5 -224.499v-157c0 -106 -19.667 -182 -59 -228c-42 -49.333 -114 -74 -216 -74h-407zM265 575.999v-402.001h176c36 0 61.667 10.833 77 32.5s23 53.5 23 95.5v157
c0 46.667 -7.5 77.834 -22.5 93.501s-41.167 23.5 -78.5 23.5h-175z" />
    <glyph glyph-name="E" unicode="E" horiz-adv-x="679" 
d="M265 586v-137h320v-139h-320v-146h348v-164h-548v750h541v-164h-341z" />
    <glyph glyph-name="F" unicode="F" horiz-adv-x="632" 
d="M65 750h532v-164h-332v-147h306v-164h-306v-275h-200v750z" />
    <glyph glyph-name="G" unicode="G" horiz-adv-x="778" 
d="M733 518l-203 0.000976562c0 28.667 -14 49 -42 61c-21.333 9.33301 -50.333 14 -87 14c-68 0 -111 -12.333 -129 -37c-14 -18.667 -21 -61.667 -21 -129v-122c0 -62.667 12 -104.334 36 -125.001c20 -17.333 58 -26 114 -26c52 0 86.5 8.16699 103.5 24.5
s25.5 50.5 25.5 102.5h-138v139h341v-131c0 -124.667 -21.333 -205.667 -64 -243s-132 -56 -268 -56c-127.333 0 -216 17.333 -266 52c-60 42 -90 120.333 -90 235v194c0 115.333 31.667 194 95 236c50.667 33.333 137.667 50 261 50c110 0 189.667 -14.333 239 -43
c62 -36 93 -101.333 93 -196z" />
    <glyph glyph-name="H" unicode="H" horiz-adv-x="791" 
d="M265 750v-282h261v282h200v-750h-200v294h-261v-294h-200v750h200z" />
    <glyph glyph-name="I" unicode="I" horiz-adv-x="330" 
d="M265 750v-750h-200v750h200z" />
    <glyph glyph-name="J" unicode="J" horiz-adv-x="602" 
d="M343 750l199.999 0.00195312v-519c0 -98.667 -18.167 -163.5 -54.5 -194.5s-108.166 -46.5 -215.499 -46.5c-103.333 0 -171 16.667 -203 50s-48 102.666 -48 207.999v62h190v-62c0 -32.667 3.66699 -54.834 11 -66.501s24 -17.5 50 -17.5c29.333 0 48.333 4.66699 57 14
s13 27 13 53v519z" />
    <glyph glyph-name="K" unicode="K" horiz-adv-x="782" 
d="M265 750v-282h60l193 282h242l-264 -368l286 -382h-248l-209 294h-60v-294h-200v750h200z" />
    <glyph glyph-name="L" unicode="L" horiz-adv-x="600" 
d="M265 750v-576h313v-174h-513v750h200z" />
    <glyph glyph-name="M" unicode="M" horiz-adv-x="1058" 
d="M65 750h317l143 -471h7l136 471h325v-750h-200l20 575l-9 2l-188 -577h-173l-189 577l-9 -2l20 -575h-200v750z" />
    <glyph glyph-name="N" unicode="N" horiz-adv-x="871" 
d="M61 750h338l222 -577l-11 577h200v-750h-341l-219 578l11 -578h-200v750z" />
    <glyph glyph-name="O" unicode="O" horiz-adv-x="784" 
d="M392 -10c-114.667 0 -198.001 17.3301 -250.001 51.9971c-64.667 42.667 -97 118.334 -97 227.001v212c0 106.667 32.333 181.334 97 224.001c52.667 34.667 136 52 250 52c114.667 0 198 -17 250 -51c64.667 -42 97 -117 97 -225v-212
c0 -107.333 -32.333 -182.666 -97 -225.999c-53.333 -35.333 -136.666 -53 -249.999 -53zM391.999 163.997c54.667 0 91 7 109 21c21.333 16.667 32 52 32 106v169c0 52.667 -10.333 87 -31 103c-17.333 13.333 -54 20 -110 20s-92.333 -6.33301 -109 -19
c-21.333 -16 -32 -50.667 -32 -104v-169c0 -53.333 10.333 -88.333 31 -105c18 -14.667 54.667 -22 110 -22z" />
    <glyph glyph-name="P" unicode="P" horiz-adv-x="743" 
d="M265 208v-208h-200v750h377c93.333 0 159.333 -19.667 198 -59s58 -108 58 -206c0 -108 -16.333 -180.333 -49 -217c-35.333 -40 -104.333 -60 -207 -60h-177zM265 586v-214.001h137c38 0 62.5 6.5 73.5 19.5s16.5 43.5 16.5 91.5c0 40.667 -5 67.334 -15 80.001
c-12 15.333 -37 23 -75 23h-137z" />
    <glyph glyph-name="Q" unicode="Q" horiz-adv-x="791" 
d="M428 378l106.999 -75.999v122c0 67.333 -8.33301 110.666 -25 129.999s-56 29 -118 29c-61.333 0 -100.166 -9.5 -116.499 -28.5s-24.5 -62.5 -24.5 -130.5v-135c0 -54 11 -89 33 -105c18 -13.333 54 -20 108 -20c34 0 64 5 90 15l-133 87zM725.999 -0.999023l-73.999 59
c-31.333 -27.333 -73 -46.333 -125 -57c-36 -7.33301 -80.667 -11 -134 -11c-124 0 -211 19.333 -261 58c-58 45.333 -87 128 -87 248v158c0 117.333 29.333 198.666 88 243.999c51.333 39.333 138 59 260 59c121.333 0 207.666 -19.667 258.999 -59
c59.333 -45.333 89 -126.666 89 -243.999v-160c0 -57.333 -5 -100 -15 -128l82 -56z" />
    <glyph glyph-name="R" unicode="R" horiz-adv-x="750" 
d="M265 218v-218.001h-200v750h386c90.667 0 154.334 -15.333 191.001 -46c40 -33.333 60 -92.666 60 -177.999c0 -80.667 -7.33301 -135 -22 -163c-17.333 -33.333 -55 -57 -113 -71v-8c45.333 -4.66699 79.166 -17.5 101.499 -38.5s33.5 -52.5 33.5 -94.5v-151h-200v124
c0 30 -6.33301 53.167 -19 69.5s-33.667 24.5 -63 24.5h-155zM265 585.999v-203.999h155c37.333 0 60.333 7 69 21s13 46 13 96c0 33.333 -5.5 56.166 -16.5 68.499s-32.833 18.5 -65.5 18.5h-155z" />
    <glyph glyph-name="S" unicode="S" horiz-adv-x="733" 
d="M667 515l-192 0.00195312c0 35.333 -7.66699 57.166 -23 65.499s-45 12.5 -89 12.5c-50.667 0 -83.667 -5.33301 -99 -16c-12.667 -8.66699 -19 -25 -19 -49c0 -30 12 -49.333 36 -58c10 -4 34 -9.66699 72 -17l192 -38c95.333 -18 143 -76.333 143 -175
c0 -106 -19.167 -174.167 -57.5 -204.5s-127.5 -45.5 -267.5 -45.5c-117.333 0 -196.666 13.333 -237.999 40c-53.333 34.667 -80 104.667 -80 210h192c0 -37.333 8.16699 -61 24.5 -71s50.166 -15 101.499 -15c50 0 83.333 4.33301 100 13s25 28.667 25 60
c0 19.333 -4.66699 34 -14 44c-13.333 14 -39 23.667 -77 29l-191 28c-48.667 7.33301 -85.667 23.666 -111 48.999c-33.333 33.333 -50 83.666 -50 150.999c0 94.667 28.333 158.334 85 191.001c44 25.333 121.667 38 233 38c107.333 0 182.333 -12.333 225 -37
c52.667 -30.667 79 -88.667 79 -174v-31z" />
    <glyph glyph-name="T" unicode="T" horiz-adv-x="644" 
d="M422 576v-576h-200v576h-202v174h604v-174h-202z" />
    <glyph glyph-name="U" unicode="U" horiz-adv-x="776" 
d="M65 750l200 -0.000976562v-487c0 -39.333 9.33301 -65.666 28 -78.999s50.334 -20 95.001 -20c45.333 0 76.333 6 93 18c20 14 30 41 30 81v487h200v-500c0 -96 -20.333 -162 -61 -198c-46.667 -41.333 -134 -62 -262 -62c-132.667 0 -221.334 20.667 -266.001 62
c-38 35.333 -57 101.333 -57 198v500z" />
    <glyph glyph-name="V" unicode="V" horiz-adv-x="743" 
d="M536 750h207l-219 -750h-312l-212 750h203l162 -577z" />
    <glyph glyph-name="W" unicode="W" horiz-adv-x="1122" 
d="M921 750h201l-166 -750h-289l-102 470h-8l-109 -470h-286l-162 750h203l108 -577h5l143 577h208l134 -577z" />
    <glyph glyph-name="X" unicode="X" horiz-adv-x="775" 
d="M754 750l-207 -364l223 -386h-233l-149 289l-148 -289h-235l225 386l-211 364h234l135 -275l136 275h230z" />
    <glyph glyph-name="Y" unicode="Y" horiz-adv-x="740" 
d="M0 750h229l134 -289h7l138 289h232l-274 -487v-263h-200v263z" />
    <glyph glyph-name="Z" unicode="Z" horiz-adv-x="659" 
d="M636 750v-168l-359 -402v-6h359v-174h-613v169l354 401v6h-331v174h590z" />
    <glyph glyph-name="bracketleft" unicode="[" horiz-adv-x="385" 
d="M57 756h271v-162h-82v-582h83v-162h-272v906z" />
    <glyph glyph-name="backslash" unicode="\" horiz-adv-x="640" 
d="M74 750h140l352 -750h-140z" />
    <glyph glyph-name="bracketright" unicode="]" horiz-adv-x="385" 
d="M328 -150h-270v162h81v582h-81v162h270v-906z" />
    <glyph glyph-name="asciicircum" unicode="^" horiz-adv-x="600" 
d="M180 250h-130l190 500h120l190 -500h-130l-119 338z" />
    <glyph glyph-name="underscore" unicode="_" horiz-adv-x="500" 
d="M500 -76v-74h-500v74h500z" />
    <glyph glyph-name="grave" unicode="`" horiz-adv-x="404" 
d="M125 756l204 -120l-28 -62l-226 71z" />
    <glyph glyph-name="a" unicode="a" horiz-adv-x="609" 
d="M388 78l-6.00098 0.00195312c-6 -32.667 -25.333 -56 -58 -70c-24.667 -10.667 -55.667 -16 -93 -16c-65.333 0 -112 10.667 -140 32c-33.333 25.333 -50 69.666 -50 132.999c0 61.333 15.333 104.166 46 128.499s78.667 36.5 144 36.5c39.333 0 68.333 -2.66699 87 -8
c29.333 -8.66699 48 -25.667 56 -51h8v83c0 30.667 -3.33301 51 -10 61c-10.667 16 -33 24 -67 24c-19.333 0 -33 -1.33301 -41 -4c-20 -6.66699 -30 -23.667 -30 -51h-172c0 69.333 24 115 72 137c32 14.667 88.667 22 170 22c94.667 0 158.334 -11.667 191.001 -35
c39.333 -28 59 -85.333 59 -172v-328h-172zM381.999 169.002c0 20 -7.50098 32.668 -22.501 38.001s-38.833 8 -71.5 8c-25.333 0 -43 -2.66699 -53 -8c-14.667 -8 -22 -23 -22 -45c0 -18 5.33301 -32.333 16 -43s30.334 -16 59.001 -16c37.333 0 62.333 4.16699 75 12.5
s19 26.166 19 53.499z" />
    <glyph glyph-name="b" unicode="b" horiz-adv-x="625" 
d="M408 262c0 54 -5.66699 91.001 -17 111.001s-36.333 30 -75 30c-36.667 0 -60.667 -10 -72 -30s-17 -56.667 -17 -110c0 -60 5.16699 -98.167 15.5 -114.5s34.833 -24.5 73.5 -24.5c39.333 0 64.5 8.16699 75.5 24.5s16.5 54.166 16.5 113.499zM227 750.001v-298l8 -2
c12.667 31.333 32.667 54 60 68c22 11.333 50.667 17 86 17c71.333 0 122.333 -17.833 153 -53.5s46 -93.834 46 -174.501v-120c0 -67.333 -17 -116.666 -51 -147.999s-83.333 -47 -148 -47c-42 0 -74 6.33301 -96 19c-26.667 15.333 -44.667 42 -54 80h-8l4 -91h-172v750
h172z" />
    <glyph glyph-name="c" unicode="c" horiz-adv-x="570" 
d="M540 332l-171.999 0.000976562c0 29.333 -5.16699 48.5 -15.5 57.5s-32.5 13.5 -66.5 13.5c-31.333 0 -52.333 -8.83301 -63 -26.5s-16 -55.834 -16 -114.501c0 -60 4.83301 -98 14.5 -114s31.167 -24 64.5 -24c37.333 0 60.333 5.16699 69 15.5s13 33.166 13 68.499h172
c0 -88.667 -20 -148 -60 -178c-34 -25.333 -98.667 -38 -194 -38c-100 0 -166.833 18.833 -200.5 56.5s-50.5 108.834 -50.5 213.501c0 98 14.667 165.667 44 203c36.667 46.667 105.667 70 207 70c87.333 0 148.666 -11 183.999 -33c46.667 -29.333 70 -86 70 -170z" />
    <glyph glyph-name="d" unicode="d" horiz-adv-x="625" 
d="M398 262c0 54 -5.66699 91.001 -17 111.001s-36.333 30 -75 30c-36.667 0 -60.667 -10 -72 -30s-17 -56.667 -17 -110c0 -60 5.16699 -98.167 15.5 -114.5s34.833 -24.5 73.5 -24.5c39.333 0 64.5 8.16699 75.5 24.5s16.5 54.166 16.5 113.499zM398 450.001
l0.00195312 299.998h172v-750h-172l4 91h-8c-9.33301 -37.333 -27.333 -63.666 -54 -78.999c-23.333 -13.333 -55.333 -20 -96 -20c-65.333 0 -114.333 15 -147 45c-34.667 32 -52 82 -52 150v120c0 80.667 15.167 138.834 45.5 174.501s81.5 53.5 153.5 53.5
c35.333 0 65.666 -6.16699 90.999 -18.5s44.666 -34.5 57.999 -66.5h5z" />
    <glyph glyph-name="e" unicode="e" horiz-adv-x="583" 
d="M207 328l169.001 0.00195312c0 37.333 -6.33301 61.166 -19 71.499s-35.334 15.5 -68.001 15.5c-31.333 0 -52.833 -5.83301 -64.5 -17.5s-17.5 -34.834 -17.5 -69.501zM548.001 233.002l-341 0.00292969c0 -48 5.33301 -80.167 16 -96.5s33.667 -24.5 69 -24.5
c31.333 0 52 2.33301 62 7c14.667 7.33301 22 23.666 22 48.999h172c0 -74 -24.333 -123.667 -73 -149c-34.667 -18 -95.667 -27 -183 -27c-101.333 0 -169.5 19.667 -204.5 59s-52.5 109.666 -52.5 210.999c0 104 16.333 174.667 49 212c36 40.667 105.333 61 208 61
c99.333 0 166.833 -18.833 202.5 -56.5s53.5 -109.834 53.5 -216.501v-29z" />
    <glyph glyph-name="f" unicode="f" horiz-adv-x="393" 
d="M378 525v-125.999h-117v-399h-172v399h-69v126h69v51c0 69.333 18.5 115.666 55.5 138.999s112.5 35 226.5 35v-131c-2.66699 0.666992 -8.16699 1.66699 -16.5 3s-14.833 2 -19.5 2c-33.333 0 -54 -4.66699 -62 -14s-12 -31.333 -12 -66v-19h117z" />
    <glyph glyph-name="g" unicode="g" horiz-adv-x="625" 
d="M404 432l-5.99902 93h172v-501c0 -100.667 -15.667 -168.667 -47 -204c-34 -38 -100.667 -57 -200 -57c-95.333 0 -161 12 -197 36c-38.667 26 -58 74.333 -58 145h160c0 -23.333 7.66699 -39 23 -47c10.667 -5.33301 29.667 -8 57 -8c37.333 0 61.666 5.33301 72.999 16
s17 34.667 17 72v109h-6c-10.667 -31.333 -28.667 -54.833 -54 -70.5s-55 -23.5 -89 -23.5c-84.667 0 -142 26.333 -172 79c-21.333 38 -32 102 -32 192c0 96 11.333 162.667 34 200c29.333 48 86 72 170 72c39.333 0 71.5 -7.5 96.5 -22.5s42.5 -41.833 52.5 -80.5h6z
M398.001 262c0 54 -5.66699 91.001 -17 111.001s-36.333 30 -75 30c-36.667 0 -60.667 -10 -72 -30s-17 -56.667 -17 -110c0 -60 5.16699 -98.167 15.5 -114.5s34.833 -24.5 73.5 -24.5c39.333 0 64.5 8.16699 75.5 24.5s16.5 54.166 16.5 113.499z" />
    <glyph glyph-name="h" unicode="h" horiz-adv-x="615" 
d="M227 750l0.000976562 -322.999h5c12 39.333 31 67.166 57 83.499s60.333 24.5 103 24.5c57.333 0 99.666 -14.333 126.999 -43s41 -71.667 41 -129v-363h-172v323c0 27.333 -5 47.5 -15 60.5s-28.667 19.5 -56 19.5c-35.333 0 -60 -11 -74 -33
c-10.667 -17.333 -16 -44.333 -16 -81v-289h-172v750h172z" />
    <glyph glyph-name="i" unicode="i" horiz-adv-x="282" 
d="M227 525v-525h-172v525h172zM227 750v-132h-172v132h172z" />
    <glyph glyph-name="j" unicode="j" horiz-adv-x="282" 
d="M55 525l172.001 -0.000976562v-596c0 -57.333 -13.667 -97.666 -41 -120.999s-70.333 -35 -129 -35c-10 0 -18.833 0.333008 -26.5 1s-15.834 2.33398 -24.501 5.00098v117c19.333 0 32.333 4.66699 39 14s10 21.666 10 36.999v578zM227.001 749.999v-132h-172v132h172z
" />
    <glyph glyph-name="k" unicode="k" horiz-adv-x="592" 
d="M227 750v-422h30l104 197h189l-148 -252l182 -273h-201l-126 213h-30v-213h-172v750h172z" />
    <glyph glyph-name="l" unicode="l" horiz-adv-x="282" 
d="M227 750v-750h-172v750h172z" />
    <glyph glyph-name="m" unicode="m" horiz-adv-x="924" 
d="M227 525v-74c10.667 28.667 29.334 49.834 56.001 63.501s56.667 20.5 90 20.5c45.333 0 80 -6.33301 104 -19c32.667 -17.333 51 -46.666 55 -87.999h8c4 34.667 20.333 61.167 49 79.5s61 27.5 97 27.5c62 0 108 -14 138 -42s45 -72.333 45 -133v-360h-172v304
c0 34.667 -3 58 -9 70c-9.33301 19.333 -29.333 29 -60 29s-52.334 -10.333 -65.001 -31c-10 -16.667 -15 -41.334 -15 -74.001v-298h-172v318c0 28 -3.33301 48 -10 60c-9.33301 16.667 -27.666 25 -54.999 25c-32.667 0 -54.834 -8.83301 -66.501 -26.5
s-17.5 -43.834 -17.5 -78.501v-298h-172v525h172z" />
    <glyph glyph-name="n" unicode="n" horiz-adv-x="615" 
d="M227 525l0.000976562 -97.999h5c12 39.333 31 67.166 57 83.499s60.333 24.5 103 24.5c57.333 0 99.666 -14.333 126.999 -43s41 -71.667 41 -129v-363h-172v323c0 27.333 -5 47.5 -15 60.5s-28.667 19.5 -56 19.5c-35.333 0 -60 -11 -74 -33
c-10.667 -17.333 -16 -44.333 -16 -81v-289h-172v525h172z" />
    <glyph glyph-name="o" unicode="o" horiz-adv-x="595" 
d="M297 535c109.333 0 180.5 -17.502 213.5 -52.502s49.5 -108.5 49.5 -220.5c0 -109.333 -16.667 -181.666 -50 -216.999s-104.333 -53 -213 -53c-105.333 0 -175.333 18.333 -210 55s-52 108.334 -52 215.001c0 110 16.5 183 49.5 219s103.833 54 212.5 54zM388 261.998
c0 54 -5.66699 91.001 -17 111.001s-36.333 30 -75 30c-36.667 0 -60.667 -10 -72 -30s-17 -56.667 -17 -110c0 -60 5.16699 -98.167 15.5 -114.5s34.833 -24.5 73.5 -24.5c39.333 0 64.5 8.16699 75.5 24.5s16.5 54.166 16.5 113.499z" />
    <glyph glyph-name="p" unicode="p" horiz-adv-x="625" 
d="M408 262c0 54 -5.66699 91.001 -17 111.001s-36.333 30 -75 30c-36.667 0 -60.667 -10 -72 -30s-17 -56.667 -17 -110c0 -60 5.16699 -98.167 15.5 -114.5s34.833 -24.5 73.5 -24.5c39.333 0 64.5 8.16699 75.5 24.5s16.5 54.166 16.5 113.499zM227 79.001
l0.000976562 -306h-172v752h172l-4 -83h8c9.33301 34 26.666 58 51.999 72s58 21 98 21c65.333 0 114.833 -15.833 148.5 -47.5s50.5 -81.5 50.5 -149.5v-120c0 -80.667 -15.167 -138.5 -45.5 -173.5s-81.5 -52.5 -153.5 -52.5c-36 0 -64.667 5.33301 -86 16
c-26.667 13.333 -46.667 37 -60 71h-8z" />
    <glyph glyph-name="q" unicode="q" horiz-adv-x="625" 
d="M398 262c0 54 -5.66699 91.001 -17 111.001s-36.333 30 -75 30c-36.667 0 -60.667 -10 -72 -30s-17 -56.667 -17 -110c0 -60 5.16699 -98.167 15.5 -114.5s34.833 -24.5 73.5 -24.5c39.333 0 64.5 8.16699 75.5 24.5s16.5 54.166 16.5 113.499zM402 442.001
l-3.99805 83.001h172v-752h-172v306h-8c-12.667 -32.667 -32.334 -56 -59.001 -70c-22 -11.333 -50.667 -17 -86 -17c-72 0 -123.333 17.5 -154 52.5s-46 92.833 -46 173.5v120c0 67.333 17 117 51 149s83.333 48 148 48c41.333 0 74.166 -6.83301 98.499 -20.5
s41.5 -37.834 51.5 -72.501h8z" />
    <glyph glyph-name="r" unicode="r" horiz-adv-x="512" 
d="M227 525l-0.000976562 -76.999c12 29.333 29.333 51.166 52 65.499s50.334 21.5 83.001 21.5c53.333 0 89.666 -21 108.999 -63c13.333 -28.667 20 -73.667 20 -135v-42h-155v26c0 22.667 -3 41 -9 55c-8 18 -21.333 27 -40 27c-23.333 0 -39.166 -8.33301 -47.499 -25
s-12.5 -37.667 -12.5 -63v-315h-172v525h172z" />
    <glyph glyph-name="s" unicode="s" horiz-adv-x="584" 
d="M524 380h-162.001c-2 18 -7.83301 29.833 -17.5 35.5s-27.167 8.5 -52.5 8.5c-38.667 0 -63.334 -3.33301 -74.001 -10s-16 -18.667 -16 -36c0 -16 4.33301 -27.333 13 -34c13.333 -10 39 -15 77 -15c94.667 0 159.667 -9.66699 195 -29
c41.333 -22.667 62 -65.667 62 -129c0 -72.667 -20.333 -121.667 -61 -147c-34.667 -21.333 -98 -32 -190 -32c-98.667 0 -164.667 8.66699 -198 26c-43.333 22.667 -65 70 -65 142h172c0 -24 6.33301 -39.5 19 -46.5s34.667 -10.5 66 -10.5
c36.667 0 60.834 2.83301 72.501 8.5s17.5 18.834 17.5 39.501s-6.16699 34.5 -18.5 41.5s-36.166 10.5 -71.499 10.5c-94.667 0 -161.167 12.667 -199.5 38s-57.5 65.666 -57.5 120.999c0 70.667 23.333 118.667 70 144c36 19.333 98.333 29 187 29
c92.667 0 155.667 -12 189 -36c28.667 -20.667 43 -52 43 -94v-25z" />
    <glyph glyph-name="t" unicode="t" horiz-adv-x="492" 
d="M449 525l0.000976562 -126h-199v-235c0 -16.667 2.66699 -28.5 8 -35.5s15.666 -10.5 30.999 -10.5c16.667 0 28.334 6.66699 35.001 20s10 29.333 10 48v28h138v-47c0 -69.333 -14.667 -116.333 -44 -141c-26.667 -22.667 -76.334 -34 -149.001 -34
c-66 0 -113.333 8 -142 24c-39.333 22 -59 63.333 -59 124v259h-64v126h64v111h172v-111h199z" />
    <glyph glyph-name="u" unicode="u" horiz-adv-x="614" 
d="M55 525l172 -0.000976562v-313c0 -29.333 4.83301 -51.333 14.5 -66s27.167 -22 52.5 -22s47.166 6.83301 65.499 20.5s27.5 32.834 27.5 57.501v323h172v-525h-167l6 101h-8c-11.333 -38.667 -31.333 -67 -60 -85c-25.333 -16 -57.666 -24 -96.999 -24
c-55.333 0 -98 13 -128 39c-33.333 29.333 -50 74.333 -50 135v359z" />
    <glyph glyph-name="v" unicode="v" horiz-adv-x="550" 
d="M547 525l-129 -525h-270l-145 525h180l95 -410h5l86 410h178z" />
    <glyph glyph-name="w" unicode="w" horiz-adv-x="842" 
d="M3 525h165l58 -410h8l87 410h201l87 -410h7l61 410h162l-92 -525h-247l-74 374h-6l-72 -374h-250z" />
    <glyph glyph-name="x" unicode="x" horiz-adv-x="563" 
d="M546 525l-138 -247l152 -278h-202l-75 173l-73 -173h-207l156 278l-135 247h199l60 -145l63 145h200z" />
    <glyph glyph-name="y" unicode="y" horiz-adv-x="553" 
d="M183 525l104 -427l87 427h176l-132 -571c-15.333 -68 -38.333 -115.333 -69 -142c-34 -30 -86.333 -45 -157 -45l-59 3v121l30 -4c33.333 0 57.333 11 72 33c12 18 18 44.667 18 80h-94l-156 525h180z" />
    <glyph glyph-name="z" unicode="z" horiz-adv-x="496" 
d="M40 525h435v-136l-254 -269h254v-120h-454v142l248 263h-229v120z" />
    <glyph glyph-name="braceleft" unicode="{" horiz-adv-x="385" 
d="M278 33c0 -12 3.83496 -23.667 11.502 -35s19.167 -17 34.5 -17h37v-132h-142c-24 0 -47.333 10.667 -70 32c-28.667 26.667 -43 60.667 -43 102v205c0 23.333 -6 38.166 -18 44.499s-33.333 9.5 -64 9.5v132c31.333 0 51.666 2 60.999 6c14 6 21 18.667 21 38v205
c0 40.667 14.333 74.334 43 101.001c24 22 47.333 33 70 33h142v-132h-37c-19.333 0 -31.833 -4.5 -37.5 -13.5s-8.5 -21.833 -8.5 -38.5v-171c0 -32 -12 -56.333 -36 -73c-17.333 -12 -37.333 -19 -60 -21c35.333 -5.33301 60.166 -16.5 74.499 -33.5
s21.5 -40.5 21.5 -70.5v-171z" />
    <glyph glyph-name="bar" unicode="|" horiz-adv-x="600" 
d="M358 750v-750h-115v750h115z" />
    <glyph glyph-name="braceright" unicode="}" horiz-adv-x="385" 
d="M361 374l0.000976562 -132.001c-18.667 0 -34.667 -2.66699 -48 -8c-22.667 -9.33301 -34 -24.666 -34 -45.999v-205c0 -40.667 -14.333 -74.334 -43 -101.001c-24 -22 -47.333 -33 -70 -33h-142v132h37c14 0 25.167 5.16699 33.5 15.5s12.5 22.5 12.5 36.5v171
c0 38.667 12 66.334 36 83.001c14.667 10 34.667 16.333 60 19c-24 4 -43.667 11.333 -59 22c-24.667 17.333 -37 42 -37 74v171c0 15.333 -2.66699 27 -8 35c-7.33301 11.333 -20 17 -38 17h-37v132h144c23.333 0 46.333 -10.667 69 -32c28 -26.667 42 -60.667 42 -102
v-205c0 -16.667 11 -28.667 33 -36c15.333 -5.33301 31.666 -8 48.999 -8z" />
    <glyph glyph-name="asciitilde" unicode="~" horiz-adv-x="600" 
d="M453 359l96.999 0.000976562c0 -54.667 -8.33301 -99.667 -25 -135c-22 -46.667 -56.333 -70 -103 -70c-20 0 -44.667 9.66699 -74 29l-123 80c-20.667 12.667 -37.334 19 -50.001 19c-13.333 0 -21.666 -15 -24.999 -45c-1.33301 -20.667 -2.33301 -34.667 -3 -42h-97
c0 56 8.33301 101.333 25 136c22.667 47.333 58.334 71 107.001 71c22 0 44.333 -7.66699 67 -23l111 -78c25.333 -17.333 45 -26 59 -26c12 0 20.667 8.66699 26 26s8 36.666 8 57.999z" />
    <glyph glyph-name="c128" horiz-adv-x="874" 
d="M7 750h669.999v-156h-235v-134h144c85.333 0 147.166 -17.833 185.499 -53.5s57.5 -94.5 57.5 -176.5c0 -75.333 -16 -131 -48 -167c-37.333 -42 -102.333 -63 -195 -63h-77v156h38c30.667 0 51.334 4 62.001 12c13.333 10 20 30 20 60c0 27.333 -4.66699 46.333 -14 57
c-11.333 12.667 -32.666 19 -63.999 19h-109v-304h-200v594h-235v156z" />
    <glyph glyph-name="c128" unicode="&#x402;" horiz-adv-x="874" 
d="M7 750h669.999v-156h-235v-134h144c85.333 0 147.166 -17.833 185.499 -53.5s57.5 -94.5 57.5 -176.5c0 -75.333 -16 -131 -48 -167c-37.333 -42 -102.333 -63 -195 -63h-77v156h38c30.667 0 51.334 4 62.001 12c13.333 10 20 30 20 60c0 27.333 -4.66699 46.333 -14 57
c-11.333 12.667 -32.666 19 -63.999 19h-109v-304h-200v594h-235v156z" />
    <glyph glyph-name="c129" horiz-adv-x="632" 
d="M65 750h532v-164h-332v-586h-200v750zM551 969l-181 -164h-95l107 164h169z" />
    <glyph glyph-name="c129" unicode="&#x403;" horiz-adv-x="632" 
d="M65 750h532v-164h-332v-586h-200v750zM551 969l-181 -164h-95l107 164h169z" />
    <glyph glyph-name="c141" horiz-adv-x="782" 
d="M265 750v-282h60l193 282h242l-264 -368l286 -382h-248l-209 294h-60v-294h-200v750h200zM568 969l-181 -164h-95l107 164h169z" />
    <glyph glyph-name="c141" unicode="&#x40c;" horiz-adv-x="782" 
d="M265 750v-282h60l193 282h242l-264 -368l286 -382h-248l-209 294h-60v-294h-200v750h200zM568 969l-181 -164h-95l107 164h169z" />
    <glyph glyph-name="c142" horiz-adv-x="874" 
d="M7 750h669.999v-156h-235v-134h142c82.667 0 142.5 -17.833 179.5 -53.5s55.5 -94.5 55.5 -176.5v-230h-200v228c0 27.333 -4.66699 46.333 -14 57c-11.333 12.667 -32.666 19 -63.999 19h-99v-304h-200v594h-235v156z" />
    <glyph glyph-name="c142" unicode="&#x40b;" horiz-adv-x="874" 
d="M7 750h669.999v-156h-235v-134h142c82.667 0 142.5 -17.833 179.5 -53.5s55.5 -94.5 55.5 -176.5v-230h-200v228c0 27.333 -4.66699 46.333 -14 57c-11.333 12.667 -32.666 19 -63.999 19h-99v-304h-200v594h-235v156z" />
    <glyph glyph-name="c143" horiz-adv-x="791" 
d="M265 750v-576h261v576h200v-750h-260v-171h-141v171h-260v750h200z" />
    <glyph glyph-name="c143" unicode="&#x40f;" horiz-adv-x="791" 
d="M265 750v-576h261v576h200v-750h-260v-171h-141v171h-260v750h200z" />
    <glyph glyph-name="c144" horiz-adv-x="615" 
d="M55 757l171.999 0.000976562v-70h161v-80h-161v-180h5c12 39.333 31 67.166 57 83.499s60.333 24.5 103 24.5c58.667 0 101.334 -16 128.001 -48s40 -85.667 40 -161v-204c0 -124.667 -17.667 -205.667 -53 -243c-30.667 -32.667 -95.667 -49 -195 -49v123
c30.667 0 51 11.5 61 34.5s15 76.833 15 161.5v154c0 39.333 -4.83301 65.833 -14.5 79.5s-28.5 20.5 -56.5 20.5c-35.333 0 -60 -11 -74 -33c-10.667 -17.333 -16 -44.333 -16 -81v-289h-172v607h-60v80h60v70z" />
    <glyph glyph-name="c144" unicode="&#x452;" horiz-adv-x="615" 
d="M55 757l171.999 0.000976562v-70h161v-80h-161v-180h5c12 39.333 31 67.166 57 83.499s60.333 24.5 103 24.5c58.667 0 101.334 -16 128.001 -48s40 -85.667 40 -161v-204c0 -124.667 -17.667 -205.667 -53 -243c-30.667 -32.667 -95.667 -49 -195 -49v123
c30.667 0 51 11.5 61 34.5s15 76.833 15 161.5v154c0 39.333 -4.83301 65.833 -14.5 79.5s-28.5 20.5 -56.5 20.5c-35.333 0 -60 -11 -74 -33c-10.667 -17.333 -16 -44.333 -16 -81v-289h-172v607h-60v80h60v70z" />
    <glyph glyph-name="c157" horiz-adv-x="592" 
d="M227 525v-197h30l104 197h189l-148 -252l182 -273h-201l-126 213h-30v-213h-172v525h172zM465 748l-147 -130h-79l89 130h137z" />
    <glyph glyph-name="c157" unicode="&#x45c;" horiz-adv-x="592" 
d="M227 525v-197h30l104 197h189l-148 -252l182 -273h-201l-126 213h-30v-213h-172v525h172zM465 748l-147 -130h-79l89 130h137z" />
    <glyph glyph-name="c158" horiz-adv-x="615" 
d="M227 757l0.000976562 -69.999h161v-80h-161v-180h5c12 39.333 31 67.166 57 83.499s60.333 24.5 103 24.5c57.333 0 99.666 -14.333 126.999 -43s41 -71.667 41 -129v-363h-172v323c0 27.333 -5 47.5 -15 60.5s-28.667 19.5 -56 19.5c-35.333 0 -60 -11 -74 -33
c-10.667 -17.333 -16 -44.333 -16 -81v-289h-172v607h-60v80h60v70h172z" />
    <glyph glyph-name="c158" unicode="&#x45b;" horiz-adv-x="615" 
d="M227 757l0.000976562 -69.999h161v-80h-161v-180h5c12 39.333 31 67.166 57 83.499s60.333 24.5 103 24.5c57.333 0 99.666 -14.333 126.999 -43s41 -71.667 41 -129v-363h-172v323c0 27.333 -5 47.5 -15 60.5s-28.667 19.5 -56 19.5c-35.333 0 -60 -11 -74 -33
c-10.667 -17.333 -16 -44.333 -16 -81v-289h-172v607h-60v80h60v70h172z" />
    <glyph glyph-name="nonbreakingspace" unicode="&#xa0;" horiz-adv-x="500" 
 />
    <glyph glyph-name="exclamdown" unicode="&#xa1;" horiz-adv-x="740" 
d="M2 750l226.997 -0.000976562l132 -322h9l129 322h231l-292 -592c-29.333 -59.333 -62.166 -102.166 -98.499 -128.499s-80.833 -39.5 -133.5 -39.5c-22 0 -38 0.5 -48 1.5s-27.333 3.5 -52 7.5v162c14 -4.66699 36 -7 66 -7c30.667 0 51.334 3.16699 62.001 9.5
s19.334 19.833 26.001 40.5zM273.997 957.999c0 -26 6.66797 -43.667 20.001 -53s37 -14 71 -14s57.667 4.5 71 13.5s20 26.833 20 53.5h84c0 -62.667 -15.667 -105 -47 -127c-24.667 -17.333 -67.334 -26 -128.001 -26c-62 0 -104.667 8.33301 -128 25
c-31.333 22 -47 64.667 -47 128h84z" />
    <glyph glyph-name="exclamdown" unicode="&#x40e;" horiz-adv-x="740" 
d="M2 750l226.997 -0.000976562l132 -322h9l129 322h231l-292 -592c-29.333 -59.333 -62.166 -102.166 -98.499 -128.499s-80.833 -39.5 -133.5 -39.5c-22 0 -38 0.5 -48 1.5s-27.333 3.5 -52 7.5v162c14 -4.66699 36 -7 66 -7c30.667 0 51.334 3.16699 62.001 9.5
s19.334 19.833 26.001 40.5zM273.997 957.999c0 -26 6.66797 -43.667 20.001 -53s37 -14 71 -14s57.667 4.5 71 13.5s20 26.833 20 53.5h84c0 -62.667 -15.667 -105 -47 -127c-24.667 -17.333 -67.334 -26 -128.001 -26c-62 0 -104.667 8.33301 -128 25
c-31.333 22 -47 64.667 -47 128h84z" />
    <glyph glyph-name="cent" unicode="&#xa2;" horiz-adv-x="553" 
d="M183 525l104 -427l87 427h176l-132 -571c-15.333 -68 -38.333 -115.333 -69 -142c-34 -30 -86.333 -45 -157 -45l-59 3v121l30 -4c33.333 0 57.333 11 72 33c12 18 18 44.667 18 80h-94l-156 525h180zM361 712h74c0 -50.667 -11.5 -85.5 -34.5 -104.5
s-60.833 -28.5 -113.5 -28.5c-48.667 0 -83.667 9 -105 27c-24.667 20.667 -37 56 -37 106h74c0 -24.667 5.16699 -40.667 15.5 -48s28.5 -11 54.5 -11s44.5 3.66699 55.5 11s16.5 23.333 16.5 48z" />
    <glyph glyph-name="cent" unicode="&#x45e;" horiz-adv-x="553" 
d="M183 525l104 -427l87 427h176l-132 -571c-15.333 -68 -38.333 -115.333 -69 -142c-34 -30 -86.333 -45 -157 -45l-59 3v121l30 -4c33.333 0 57.333 11 72 33c12 18 18 44.667 18 80h-94l-156 525h180zM361 712h74c0 -50.667 -11.5 -85.5 -34.5 -104.5
s-60.833 -28.5 -113.5 -28.5c-48.667 0 -83.667 9 -105 27c-24.667 20.667 -37 56 -37 106h74c0 -24.667 5.16699 -40.667 15.5 -48s28.5 -11 54.5 -11s44.5 3.66699 55.5 11s16.5 23.333 16.5 48z" />
    <glyph glyph-name="sterling" unicode="&#xa3;" horiz-adv-x="602" 
d="M343 750l199.999 0.00195312v-519c0 -98.667 -18.167 -163.5 -54.5 -194.5s-108.166 -46.5 -215.499 -46.5c-103.333 0 -171 16.667 -203 50s-48 102.666 -48 207.999v62h190v-62c0 -32.667 3.66699 -54.834 11 -66.501s24 -17.5 50 -17.5c29.333 0 48.333 4.66699 57 14
s13 27 13 53v519z" />
    <glyph glyph-name="sterling" unicode="&#x408;" horiz-adv-x="602" 
d="M343 750l199.999 0.00195312v-519c0 -98.667 -18.167 -163.5 -54.5 -194.5s-108.166 -46.5 -215.499 -46.5c-103.333 0 -171 16.667 -203 50s-48 102.666 -48 207.999v62h190v-62c0 -32.667 3.66699 -54.834 11 -66.501s24 -17.5 50 -17.5c29.333 0 48.333 4.66699 57 14
s13 27 13 53v519z" />
    <glyph glyph-name="currency" unicode="&#xa4;" 
d="M538 252l80.998 -81.002l-72 -68l-81 81c-22 -11.333 -36.333 -18.333 -43 -21c-20.667 -8 -42.667 -12 -66 -12c-39.333 0 -74 11.667 -104 35l-84 -84l-71 70l82 83c-12.667 15.333 -22.167 33.5 -28.5 54.5s-9.5 41.5 -9.5 61.5c0 20.667 3.33301 39.834 10 57.501
s15.334 31.834 26.001 42.501l-83 81l73 72l82 -82c28 21.333 65.667 32 113 32c22.667 0 42.834 -2.5 60.501 -7.5s33.167 -12.5 46.5 -22.5l83 82l72 -71l-84 -83l26 -49c6 -16 9 -32.333 9 -49c0 -26.667 -4.66699 -51.667 -14 -75zM263.998 357.998
c0 -25.333 9.66699 -47.001 29 -65.001s41.333 -27 66 -27c32 0 56.667 11.333 74 34c14 18 21 38 21 60c0 26.667 -8.66699 49.834 -26 69.501s-40.333 29.5 -69 29.5c-28 0 -50.833 -10.167 -68.5 -30.5s-26.5 -43.833 -26.5 -70.5z" />
    <glyph glyph-name="yen" unicode="&#xa5;" horiz-adv-x="632" 
d="M65 750h382v145h150v-309h-332v-586h-200v750z" />
    <glyph glyph-name="yen" unicode="&#x490;" horiz-adv-x="632" 
d="M65 750h382v145h150v-309h-332v-586h-200v750z" />
    <glyph glyph-name="brokenbar" unicode="&#xa6;" horiz-adv-x="600" 
d="M358 250v-300h-115v300h115zM358 700v-300h-115v300h115z" />
    <glyph glyph-name="section" unicode="&#xa7;" 
d="M270 215l201 -34.9961c19.333 0 33.333 8.33301 42 25c6.66699 13.333 10 30.666 10 51.999c0 22.667 -4.5 38.167 -13.5 46.5s-28.833 16.166 -59.5 23.499c-61.333 14.667 -106.833 24.5 -136.5 29.5s-51.167 7.5 -64.5 7.5c-19.333 0 -32.833 -6.5 -40.5 -19.5
s-11.5 -29.833 -11.5 -50.5c0 -28.667 5.66699 -48.334 17 -59.001c9.33301 -8.66699 28 -15.334 56 -20.001zM660 559.004l0.00195312 -42.0029h-185c0 19.333 -1.5 34.333 -4.5 45s-8.16699 18.667 -15.5 24s-19 9 -35 11s-38 3 -66 3
c-44.667 0 -73.834 -3.66699 -87.501 -11s-20.5 -20 -20.5 -38c0 -26 10 -42 30 -48c7.33301 -2 24.333 -5.66699 51 -11l188 -34c71.333 -12.667 117 -27.667 137 -45c28 -23.333 42 -68.333 42 -135c0 -52.667 -4.83301 -89 -14.5 -109s-25.5 -35.667 -47.5 -47
c25.333 -8.66699 42.666 -26 51.999 -52c6.66699 -19.333 10 -48 10 -86c0 -80.667 -18.667 -135.334 -56 -164.001c-46.667 -35.333 -141.334 -53 -284.001 -53c-120.667 0 -200 13.333 -238 40c-46.667 32.667 -70 103.334 -70 212.001h186c0 -42 7.66699 -68.5 23 -79.5
s48.333 -16.5 99 -16.5c58.667 0 96.667 4 114 12s26 24 26 48c0 23.333 -5.83301 39 -17.5 47s-35.167 15 -70.5 21l-238 41c-60.667 10.667 -99.5 26.167 -116.5 46.5s-25.5 61.5 -25.5 123.5c0 40.667 3 70.334 9 89.001c10 30.667 30.667 50.667 62 60
c-21.333 14.667 -35.166 33.334 -41.499 56.001s-9.5 53.667 -9.5 93c0 66.667 16.667 113.667 50 141c44.667 36.667 130.667 55 258 55c105.333 0 178 -9.33301 218 -28c58.667 -27.333 88 -83.666 88 -168.999z" />
    <glyph glyph-name="dieresis" unicode="&#xa8;" horiz-adv-x="679" 
d="M265 586v-137h320v-139h-320v-146h348v-164h-548v750h541v-164h-341zM290 937v-103h-109v103h109zM498 937v-103h-109v103h109z" />
    <glyph glyph-name="dieresis" unicode="&#x401;" horiz-adv-x="679" 
d="M265 586v-137h320v-139h-320v-146h348v-164h-548v750h541v-164h-341zM290 937v-103h-109v103h109zM498 937v-103h-109v103h109z" />
    <glyph glyph-name="copyright" unicode="&#xa9;" horiz-adv-x="800" 
d="M400 -6c-106 0 -195.999 36.999 -269.999 110.999s-111 164 -111 270s37 196 111 270s164 111 270 111c105.333 0 195.166 -37.167 269.499 -111.5s111.5 -164.166 111.5 -269.499c0 -106 -37 -196 -111 -270s-164 -111 -270 -111zM400.001 80.999
c80.667 0 150 28.6689 208 86.002s87 126.666 87 207.999s-29 150.666 -87 207.999s-127.333 86 -208 86c-82 0 -151.667 -28.333 -209 -85s-86 -126 -86 -208c0 -81.333 28.5 -150.833 85.5 -208.5s126.833 -86.5 209.5 -86.5zM513.001 303.001l89 0.000976562
c-5.33301 -47.333 -25.5 -85 -60.5 -113s-76.833 -42 -125.5 -42c-66 0 -119.167 21.833 -159.5 65.5s-60.5 98.5 -60.5 164.5c0 67.333 19.667 122.666 59 165.999s92.333 65 159 65c48.667 0 90.167 -13.5 124.5 -40.5s55.5 -63.833 63.5 -110.5h-89
c-4.66699 24.667 -16 44 -34 58s-40 21 -66 21c-41.333 0 -73.5 -15.333 -96.5 -46s-34.5 -67.667 -34.5 -111c0 -40.667 11.667 -76.667 35 -108c26 -34.667 59 -52 99 -52c24.667 0 47 8 67 24s30 35.667 30 59z" />
    <glyph glyph-name="ordfeminine" unicode="&#xaa;" horiz-adv-x="739" 
d="M498 269h206v-48c0 -94 -30.667 -158.333 -92 -193c-44.667 -25.333 -116 -38 -214 -38c-84 0 -144.667 4.33301 -182 13c-56 13.333 -97.667 39.333 -125 78c-30.667 44 -46 109.667 -46 197v194c0 111.333 29.667 188.333 89 231c50.667 36 135.667 54 255 54
c106 0 183.333 -17 232 -51c55.333 -38.667 83 -103.667 83 -195v-10h-206v19c0 28 -10 47.167 -30 57.5s-50.667 15.5 -92 15.5c-51.333 0 -85 -9.33301 -101 -28s-24 -57 -24 -115h182v-139h-182c0 -48.667 2.33301 -81 7 -97c11.333 -40 50.666 -60 117.999 -60
c46.667 0 77.334 4.33301 92.001 13c20 12 30 38.667 30 80v22z" />
    <glyph glyph-name="ordfeminine" unicode="&#x404;" horiz-adv-x="739" 
d="M498 269h206v-48c0 -94 -30.667 -158.333 -92 -193c-44.667 -25.333 -116 -38 -214 -38c-84 0 -144.667 4.33301 -182 13c-56 13.333 -97.667 39.333 -125 78c-30.667 44 -46 109.667 -46 197v194c0 111.333 29.667 188.333 89 231c50.667 36 135.667 54 255 54
c106 0 183.333 -17 232 -51c55.333 -38.667 83 -103.667 83 -195v-10h-206v19c0 28 -10 47.167 -30 57.5s-50.667 15.5 -92 15.5c-51.333 0 -85 -9.33301 -101 -28s-24 -57 -24 -115h182v-139h-182c0 -48.667 2.33301 -81 7 -97c11.333 -40 50.666 -60 117.999 -60
c46.667 0 77.334 4.33301 92.001 13c20 12 30 38.667 30 80v22z" />
    <glyph glyph-name="guillemotleft" unicode="&#xab;" horiz-adv-x="556" 
d="M174 515l113 -61l-96 -182l96 -169l-107 -66l-134 235zM397 515l113 -61l-96 -182l96 -169l-107 -66l-134 235z" />
    <glyph glyph-name="logicalnot" unicode="&#xac;" horiz-adv-x="600" 
d="M435 42v177h-385v115h500v-292h-115z" />
    <glyph glyph-name="registered" unicode="&#xae;" horiz-adv-x="800" 
d="M400 -6c-106 0 -195.999 36.999 -269.999 110.999s-111 164 -111 270s37 196 111 270s164 111 270 111c105.333 0 195.166 -37.167 269.499 -111.5s111.5 -164.166 111.5 -269.499c0 -106 -37 -196 -111 -270s-164 -111 -270 -111zM400.001 80.999
c81.333 0 150.833 28.5 208.5 85.5s86.5 126.167 86.5 207.5s-28.833 150.833 -86.5 208.5s-127.167 86.5 -208.5 86.5c-82 0 -151.667 -28.333 -209 -85s-86 -126 -86 -208c0 -81.333 28.5 -150.833 85.5 -208.5s126.833 -86.5 209.5 -86.5zM490.001 339.999l100 -173.999
h-98l-92 169h-78v-169h-86v412h206c54 0 92.667 -7.33301 116 -22c29.333 -18.667 44 -53.334 44 -104.001c0 -74.667 -37.333 -112 -112 -112zM322.001 401h122c26 0 44.5 4 55.5 12s16.5 24.667 16.5 50c0 19.333 -7.5 32.333 -22.5 39s-37.5 10 -67.5 10h-104v-111z" />
    <glyph glyph-name="macron" unicode="&#xaf;" horiz-adv-x="331" 
d="M265 750v-750h-200v750h200zM115 937v-103h-109v103h109zM325 937v-103h-109v103h109z" />
    <glyph glyph-name="macron" unicode="&#x407;" horiz-adv-x="331" 
d="M265 750v-750h-200v750h200zM115 937v-103h-109v103h109zM325 937v-103h-109v103h109z" />
    <glyph glyph-name="degree" unicode="&#xb0;" horiz-adv-x="400" 
d="M351 606c0 -41.333 -14.667 -76.667 -44 -106s-64.666 -44 -105.999 -44s-76.666 14.667 -105.999 44s-44 64.666 -44 105.999c0 40 14.667 75 44 105s64.666 45 105.999 45s76.666 -14.667 105.999 -44s44 -64.666 44 -105.999zM281 605.999
c0 23.333 -7.66797 42.666 -23.001 57.999s-34.666 23 -57.999 23c-22.667 0 -41.5 -7.5 -56.5 -22.5s-22.5 -34.167 -22.5 -57.5c0 -22.667 7.66699 -42 23 -58s34.333 -24 57 -24c22 0 40.833 7.83301 56.5 23.5s23.5 34.834 23.5 57.501z" />
    <glyph glyph-name="plusminus" unicode="&#xb1;" horiz-adv-x="600" 
d="M242 606h115v-119h193v-115h-193v-122h-115v122h-192v115h192v119zM50 80v115h500v-115h-500z" />
    <glyph glyph-name="twosuperior" unicode="&#xb2;" horiz-adv-x="330" 
d="M265 750v-750h-200v750h200z" />
    <glyph glyph-name="twosuperior" unicode="&#x406;" horiz-adv-x="330" 
d="M265 750v-750h-200v750h200z" />
    <glyph glyph-name="threesuperior" unicode="&#xb3;" horiz-adv-x="282" 
d="M227 525v-525h-172v525h172zM227 750v-132h-172v132h172z" />
    <glyph glyph-name="threesuperior" unicode="&#x456;" horiz-adv-x="282" 
d="M227 525v-525h-172v525h172zM227 750v-132h-172v132h172z" />
    <glyph glyph-name="acute" unicode="&#xb4;" horiz-adv-x="457" 
d="M55 525h282v90h100v-216h-210v-399h-172v525z" />
    <glyph glyph-name="acute" unicode="&#x491;" horiz-adv-x="457" 
d="M55 525h282v90h100v-216h-210v-399h-172v525z" />
    <glyph glyph-name="mu" unicode="&#xb5;" horiz-adv-x="614" 
d="M55 525l171.999 -0.000976562v-313c0 -29.333 3 -49.666 9 -60.999c9.33301 -17.333 27.333 -26 54 -26c25.333 0 47.833 6.66699 67.5 20s29.5 32.333 29.5 57v323h172v-525h-172l11 101h-8c-11.333 -38.667 -31.666 -66.667 -60.999 -84
c-25.333 -15.333 -59.333 -23 -102 -23v-221h-172v752z" />
    <glyph glyph-name="paragraph" unicode="&#xb6;" 
d="M713 -227h-120v832h-77v-832h-120v422h-130c-108.667 0 -180.167 18.5 -214.5 55.5s-51.5 111.167 -51.5 222.5c-0 100 19.333 171.167 58 213.5s104.667 63.5 198 63.5h457v-977zM396 340l0.000976562 265.001h-100c-50.667 0 -81.834 -8.33301 -93.501 -25
s-17.5 -52.334 -17.5 -107.001c0 -58 5 -93.667 15 -107c12.667 -17.333 45 -26 97 -26h99z" />
    <glyph glyph-name="periodcentered" unicode="&#xb7;" horiz-adv-x="360" 
d="M261 363v-164h-162v164h162z" />
    <glyph glyph-name="periodcentered" unicode="&#x2219;" horiz-adv-x="360" 
d="M261 363v-164h-162v164h162z" />
    <glyph glyph-name="cedilla" unicode="&#xb8;" horiz-adv-x="583" 
d="M207 328l169.001 0.00195312c0 37.333 -6.33301 61.166 -19 71.499s-35.334 15.5 -68.001 15.5c-31.333 0 -52.833 -5.83301 -64.5 -17.5s-17.5 -34.834 -17.5 -69.501zM548.001 233.002l-341 0.00292969c0 -48 5.33301 -80.167 16 -96.5s33.667 -24.5 69 -24.5
c31.333 0 52 2.33301 62 7c14.667 7.33301 22 23.666 22 48.999h172c0 -74 -24.333 -123.667 -73 -149c-34.667 -18 -95.667 -27 -183 -27c-101.333 0 -169.5 19.667 -204.5 59s-52.5 109.666 -52.5 210.999c0 104 16.333 174.667 49 212c36 40.667 105.333 61 208 61
c99.333 0 166.833 -18.833 202.5 -56.5s53.5 -109.834 53.5 -216.501v-29zM239.001 712.005v-103h-109v103h109zM449.001 712.005v-103h-109v103h109z" />
    <glyph glyph-name="cedilla" unicode="&#x451;" horiz-adv-x="583" 
d="M207 328l169.001 0.00195312c0 37.333 -6.33301 61.166 -19 71.499s-35.334 15.5 -68.001 15.5c-31.333 0 -52.833 -5.83301 -64.5 -17.5s-17.5 -34.834 -17.5 -69.501zM548.001 233.002l-341 0.00292969c0 -48 5.33301 -80.167 16 -96.5s33.667 -24.5 69 -24.5
c31.333 0 52 2.33301 62 7c14.667 7.33301 22 23.666 22 48.999h172c0 -74 -24.333 -123.667 -73 -149c-34.667 -18 -95.667 -27 -183 -27c-101.333 0 -169.5 19.667 -204.5 59s-52.5 109.666 -52.5 210.999c0 104 16.333 174.667 49 212c36 40.667 105.333 61 208 61
c99.333 0 166.833 -18.833 202.5 -56.5s53.5 -109.834 53.5 -216.501v-29zM239.001 712.005v-103h-109v103h109zM449.001 712.005v-103h-109v103h109z" />
    <glyph glyph-name="onesuperior" unicode="&#xb9;" horiz-adv-x="1199" 
d="M802 127h314v-77h-314v77zM959 505c66.667 0 110 -11.333 130 -34c18 -20.667 27 -63.667 27 -129c0 -66 -8.66699 -109 -26 -129c-20 -23.333 -63.667 -35 -131 -35c-66.667 0 -109.5 11 -128.5 33s-28.5 65.667 -28.5 131s8.66699 108 26 128
c20 23.333 63.667 35 131 35zM960 428c-22 0 -36.5 -5.00195 -43.5 -15.002s-10.5 -33.667 -10.5 -71s3.33301 -61.166 10 -71.499s21 -15.5 43 -15.5c21.333 0 35.5 5.33301 42.5 16s10.5 34.334 10.5 71.001s-3.16699 60.167 -9.5 70.5s-20.5 15.5 -42.5 15.5zM63 749.998
h310l178 -575h6l-19 575h200v-750h-311l-178 575h-6l20 -575h-200v750z" />
    <glyph glyph-name="onesuperior" unicode="&#x2116;" horiz-adv-x="1199" 
d="M802 127h314v-77h-314v77zM959 505c66.667 0 110 -11.333 130 -34c18 -20.667 27 -63.667 27 -129c0 -66 -8.66699 -109 -26 -129c-20 -23.333 -63.667 -35 -131 -35c-66.667 0 -109.5 11 -128.5 33s-28.5 65.667 -28.5 131s8.66699 108 26 128
c20 23.333 63.667 35 131 35zM960 428c-22 0 -36.5 -5.00195 -43.5 -15.002s-10.5 -33.667 -10.5 -71s3.33301 -61.166 10 -71.499s21 -15.5 43 -15.5c21.333 0 35.5 5.33301 42.5 16s10.5 34.334 10.5 71.001s-3.16699 60.167 -9.5 70.5s-20.5 15.5 -42.5 15.5zM63 749.998
h310l178 -575h6l-19 575h200v-750h-311l-178 575h-6l20 -575h-200v750z" />
    <glyph glyph-name="ordmasculine" unicode="&#xba;" horiz-adv-x="566" 
d="M541 341l-170.999 0.000976562c0 30 -5.83301 49.833 -17.5 59.5s-33.5 14.5 -65.5 14.5c-29.333 0 -50 -6.33301 -62 -19s-18 -37 -18 -73h112v-105h-112c0 -42.667 5.83301 -71 17.5 -85s32.5 -21 62.5 -21c36.667 0 59.667 4.66699 69 14s14 30 14 62h171
c0 -82 -21.333 -136.667 -64 -164c-34 -21.333 -97.333 -32 -190 -32c-100.667 0 -167.834 18.833 -201.501 56.5s-50.5 109.167 -50.5 214.5c0 97.333 15 165 45 203c36 46 105 69 207 69c86.667 0 148 -11 184 -33c46.667 -28.667 70 -82.334 70 -161.001z" />
    <glyph glyph-name="ordmasculine" unicode="&#x454;" horiz-adv-x="566" 
d="M541 341l-170.999 0.000976562c0 30 -5.83301 49.833 -17.5 59.5s-33.5 14.5 -65.5 14.5c-29.333 0 -50 -6.33301 -62 -19s-18 -37 -18 -73h112v-105h-112c0 -42.667 5.83301 -71 17.5 -85s32.5 -21 62.5 -21c36.667 0 59.667 4.66699 69 14s14 30 14 62h171
c0 -82 -21.333 -136.667 -64 -164c-34 -21.333 -97.333 -32 -190 -32c-100.667 0 -167.834 18.833 -201.501 56.5s-50.5 109.167 -50.5 214.5c0 97.333 15 165 45 203c36 46 105 69 207 69c86.667 0 148 -11 184 -33c46.667 -28.667 70 -82.334 70 -161.001z" />
    <glyph glyph-name="guillemotright" unicode="&#xbb;" horiz-adv-x="556" 
d="M375 37l-113 61l96 182l-96 169l107 66l134 -235zM152 37l-113 61l96 182l-96 169l107 66l134 -235z" />
    <glyph glyph-name="onequarter" unicode="&#xbc;" horiz-adv-x="282" 
d="M55 525l172.001 -0.000976562v-596c0 -57.333 -13.667 -97.666 -41 -120.999s-70.333 -35 -129 -35c-10 0 -18.833 0.333008 -26.5 1s-15.834 2.33398 -24.501 5.00098v117c19.333 0 32.333 4.66699 39 14s10 21.666 10 36.999v578zM227.001 749.999v-132h-172v132h172z
" />
    <glyph glyph-name="onequarter" unicode="&#x458;" horiz-adv-x="282" 
d="M55 525l172.001 -0.000976562v-596c0 -57.333 -13.667 -97.666 -41 -120.999s-70.333 -35 -129 -35c-10 0 -18.833 0.333008 -26.5 1s-15.834 2.33398 -24.501 5.00098v117c19.333 0 32.333 4.66699 39 14s10 21.666 10 36.999v578zM227.001 749.999v-132h-172v132h172z
" />
    <glyph glyph-name="onehalf" unicode="&#xbd;" horiz-adv-x="733" 
d="M667 515l-192 0.00195312c0 35.333 -7.66699 57.166 -23 65.499s-45 12.5 -89 12.5c-50.667 0 -83.667 -5.33301 -99 -16c-12.667 -8.66699 -19 -25 -19 -49c0 -30 12 -49.333 36 -58c10 -4 34 -9.66699 72 -17l192 -38c95.333 -18 143 -76.333 143 -175
c0 -106 -19.167 -174.167 -57.5 -204.5s-127.5 -45.5 -267.5 -45.5c-117.333 0 -196.666 13.333 -237.999 40c-53.333 34.667 -80 104.667 -80 210h192c0 -37.333 8.16699 -61 24.5 -71s50.166 -15 101.499 -15c50 0 83.333 4.33301 100 13s25 28.667 25 60
c0 19.333 -4.66699 34 -14 44c-13.333 14 -39 23.667 -77 29l-191 28c-48.667 7.33301 -85.667 23.666 -111 48.999c-33.333 33.333 -50 83.666 -50 150.999c0 94.667 28.333 158.334 85 191.001c44 25.333 121.667 38 233 38c107.333 0 182.333 -12.333 225 -37
c52.667 -30.667 79 -88.667 79 -174v-31z" />
    <glyph glyph-name="onehalf" unicode="&#x405;" horiz-adv-x="733" 
d="M667 515l-192 0.00195312c0 35.333 -7.66699 57.166 -23 65.499s-45 12.5 -89 12.5c-50.667 0 -83.667 -5.33301 -99 -16c-12.667 -8.66699 -19 -25 -19 -49c0 -30 12 -49.333 36 -58c10 -4 34 -9.66699 72 -17l192 -38c95.333 -18 143 -76.333 143 -175
c0 -106 -19.167 -174.167 -57.5 -204.5s-127.5 -45.5 -267.5 -45.5c-117.333 0 -196.666 13.333 -237.999 40c-53.333 34.667 -80 104.667 -80 210h192c0 -37.333 8.16699 -61 24.5 -71s50.166 -15 101.499 -15c50 0 83.333 4.33301 100 13s25 28.667 25 60
c0 19.333 -4.66699 34 -14 44c-13.333 14 -39 23.667 -77 29l-191 28c-48.667 7.33301 -85.667 23.666 -111 48.999c-33.333 33.333 -50 83.666 -50 150.999c0 94.667 28.333 158.334 85 191.001c44 25.333 121.667 38 233 38c107.333 0 182.333 -12.333 225 -37
c52.667 -30.667 79 -88.667 79 -174v-31z" />
    <glyph glyph-name="threequarters" unicode="&#xbe;" horiz-adv-x="584" 
d="M524 380h-162.001c-2 18 -7.83301 29.833 -17.5 35.5s-27.167 8.5 -52.5 8.5c-38.667 0 -63.334 -3.33301 -74.001 -10s-16 -18.667 -16 -36c0 -16 4.33301 -27.333 13 -34c13.333 -10 39 -15 77 -15c94.667 0 159.667 -9.66699 195 -29
c41.333 -22.667 62 -65.667 62 -129c0 -72.667 -20.333 -121.667 -61 -147c-34.667 -21.333 -98 -32 -190 -32c-98.667 0 -164.667 8.66699 -198 26c-43.333 22.667 -65 70 -65 142h172c0 -24 6.33301 -39.5 19 -46.5s34.667 -10.5 66 -10.5
c36.667 0 60.834 2.83301 72.501 8.5s17.5 18.834 17.5 39.501s-6.16699 34.5 -18.5 41.5s-36.166 10.5 -71.499 10.5c-94.667 0 -161.167 12.667 -199.5 38s-57.5 65.666 -57.5 120.999c0 70.667 23.333 118.667 70 144c36 19.333 98.333 29 187 29
c92.667 0 155.667 -12 189 -36c28.667 -20.667 43 -52 43 -94v-25z" />
    <glyph glyph-name="threequarters" unicode="&#x455;" horiz-adv-x="584" 
d="M524 380h-162.001c-2 18 -7.83301 29.833 -17.5 35.5s-27.167 8.5 -52.5 8.5c-38.667 0 -63.334 -3.33301 -74.001 -10s-16 -18.667 -16 -36c0 -16 4.33301 -27.333 13 -34c13.333 -10 39 -15 77 -15c94.667 0 159.667 -9.66699 195 -29
c41.333 -22.667 62 -65.667 62 -129c0 -72.667 -20.333 -121.667 -61 -147c-34.667 -21.333 -98 -32 -190 -32c-98.667 0 -164.667 8.66699 -198 26c-43.333 22.667 -65 70 -65 142h172c0 -24 6.33301 -39.5 19 -46.5s34.667 -10.5 66 -10.5
c36.667 0 60.834 2.83301 72.501 8.5s17.5 18.834 17.5 39.501s-6.16699 34.5 -18.5 41.5s-36.166 10.5 -71.499 10.5c-94.667 0 -161.167 12.667 -199.5 38s-57.5 65.666 -57.5 120.999c0 70.667 23.333 118.667 70 144c36 19.333 98.333 29 187 29
c92.667 0 155.667 -12 189 -36c28.667 -20.667 43 -52 43 -94v-25z" />
    <glyph glyph-name="questiondown" unicode="&#xbf;" horiz-adv-x="282" 
d="M227 525v-525h-172v525h172zM90 712v-103h-109v103h109zM300 712v-103h-109v103h109z" />
    <glyph glyph-name="questiondown" unicode="&#x457;" horiz-adv-x="282" 
d="M227 525v-525h-172v525h172zM90 712v-103h-109v103h109zM300 712v-103h-109v103h109z" />
    <glyph glyph-name="Agrave" unicode="&#xc0;" horiz-adv-x="767" 
d="M519 129h-269l-37 -129h-208l225 750h304l228 -750h-204zM478 274l-92 326l-93 -326h185z" />
    <glyph glyph-name="Agrave" unicode="&#x410;" horiz-adv-x="767" 
d="M519 129h-269l-37 -129h-208l225 750h304l228 -750h-204zM478 274l-92 326l-93 -326h185z" />
    <glyph glyph-name="Aacute" unicode="&#xc1;" horiz-adv-x="727" 
d="M612 750l-0.000976562 -156h-347v-134h186c78.667 0 136.834 -17.833 174.501 -53.5s56.5 -94.5 56.5 -176.5s-19.667 -141.333 -59 -178c-36.667 -34.667 -94 -52 -172 -52h-386v750h547zM264.999 304l0.000976562 -148h139c29.333 0 49.666 5 60.999 15s17 29 17 57
c0 30 -5.5 50.167 -16.5 60.5s-31.5 15.5 -61.5 15.5h-139z" />
    <glyph glyph-name="Aacute" unicode="&#x411;" horiz-adv-x="727" 
d="M612 750l-0.000976562 -156h-347v-134h186c78.667 0 136.834 -17.833 174.501 -53.5s56.5 -94.5 56.5 -176.5s-19.667 -141.333 -59 -178c-36.667 -34.667 -94 -52 -172 -52h-386v750h547zM264.999 304l0.000976562 -148h139c29.333 0 49.666 5 60.999 15s17 29 17 57
c0 30 -5.5 50.167 -16.5 60.5s-31.5 15.5 -61.5 15.5h-139z" />
    <glyph glyph-name="Acircumflex" unicode="&#xc2;" horiz-adv-x="753" 
d="M65 0l-0.000976562 750.001h394c82.667 0 140.667 -11.333 174 -34c42 -28.667 63 -81.334 63 -158.001c0 -53.333 -7 -92 -21 -116c-17.333 -30.667 -49.666 -49.667 -96.999 -57v-8c50.667 0 86 -16 106 -48c16 -26 24 -66 24 -120c0 -85.333 -21 -143 -63 -173
c-34 -24 -94.667 -36 -182 -36h-398zM264.999 586.001v-136h144c36 0 59.5 4.5 70.5 13.5s16.5 28.5 16.5 58.5c0 24 -4 40.667 -12 50s-25 14 -51 14h-168zM264.999 311.001v-147h151c33.333 0 57 5.33301 71 16s21 30.667 21 60c0 30 -6 49.333 -18 58s-35.333 13 -70 13
h-155z" />
    <glyph glyph-name="Acircumflex" unicode="&#x412;" horiz-adv-x="753" 
d="M65 0l-0.000976562 750.001h394c82.667 0 140.667 -11.333 174 -34c42 -28.667 63 -81.334 63 -158.001c0 -53.333 -7 -92 -21 -116c-17.333 -30.667 -49.666 -49.667 -96.999 -57v-8c50.667 0 86 -16 106 -48c16 -26 24 -66 24 -120c0 -85.333 -21 -143 -63 -173
c-34 -24 -94.667 -36 -182 -36h-398zM264.999 586.001v-136h144c36 0 59.5 4.5 70.5 13.5s16.5 28.5 16.5 58.5c0 24 -4 40.667 -12 50s-25 14 -51 14h-168zM264.999 311.001v-147h151c33.333 0 57 5.33301 71 16s21 30.667 21 60c0 30 -6 49.333 -18 58s-35.333 13 -70 13
h-155z" />
    <glyph glyph-name="Atilde" unicode="&#xc3;" horiz-adv-x="632" 
d="M65 750h532v-164h-332v-586h-200v750z" />
    <glyph glyph-name="Atilde" unicode="&#x413;" horiz-adv-x="632" 
d="M65 750h532v-164h-332v-586h-200v750z" />
    <glyph glyph-name="Adieresis" unicode="&#xc4;" horiz-adv-x="817" 
d="M155 750l577 0.000976562v-578h63v-345h-190v173h-393v-173h-190v345h59c26 36 44.833 77.667 56.5 125s17.5 110.666 17.5 189.999v263zM532 578.001l-187 0.000976562v-103c0 -72 -4.83301 -130.833 -14.5 -176.5s-25.5 -87.834 -47.5 -126.501h249v406z" />
    <glyph glyph-name="Adieresis" unicode="&#x414;" horiz-adv-x="817" 
d="M155 750l577 0.000976562v-578h63v-345h-190v173h-393v-173h-190v345h59c26 36 44.833 77.667 56.5 125s17.5 110.666 17.5 189.999v263zM532 578.001l-187 0.000976562v-103c0 -72 -4.83301 -130.833 -14.5 -176.5s-25.5 -87.834 -47.5 -126.501h249v406z" />
    <glyph glyph-name="Aring" unicode="&#xc5;" horiz-adv-x="679" 
d="M265 586v-137h320v-139h-320v-146h348v-164h-548v750h541v-164h-341z" />
    <glyph glyph-name="Aring" unicode="&#x415;" horiz-adv-x="679" 
d="M265 586v-137h320v-139h-320v-146h348v-164h-548v750h541v-164h-341z" />
    <glyph glyph-name="AE" unicode="&#xc6;" horiz-adv-x="1171" 
d="M683 468h60l166 282h228l-226 -363l260 -387h-248l-180 294h-60v-294h-189v294h-60l-180 -294h-248l260 387l-226 363h228l166 -282h60v282h189v-282z" />
    <glyph glyph-name="AE" unicode="&#x416;" horiz-adv-x="1171" 
d="M683 468h60l166 282h228l-226 -363l260 -387h-248l-180 294h-60v-294h-189v294h-60l-180 -294h-248l260 387l-226 363h228l166 -282h60v282h189v-282z" />
    <glyph glyph-name="Ccedilla" unicode="&#xc7;" horiz-adv-x="733" 
d="M294 311l-0.00195312 138.999h95c26 0 44 2 54 6c22 8.66699 33 30.667 33 66c0 24.667 -6.66699 42 -20 52c-17.333 12.667 -50 19 -98 19c-42 0 -71.333 -5.16699 -88 -15.5s-25 -30.833 -25 -61.5h-191v31c0 78.667 26.667 134.334 80 167.001
c46.667 28.667 122.334 43 227.001 43c105.333 0 182.333 -13.333 231 -40c56 -30.667 84 -83.667 84 -159c0 -53.333 -7 -92 -21 -116c-17.333 -30.667 -49.666 -49.667 -96.999 -57v-8c46.667 -4 80 -19.333 100 -46s30 -64 30 -112c0 -90 -20 -150 -60 -180
c-43.333 -32.667 -131.666 -49 -264.999 -49c-114.667 0 -194 14.667 -238 44c-53.333 36 -80 104.667 -80 206h192c0 -37.333 8.16699 -61 24.5 -71s50.166 -15 101.499 -15c48 0 80.833 5.5 98.5 16.5s26.5 32.167 26.5 63.5c0 28 -6.5 47.833 -19.5 59.5
s-35.833 17.5 -68.5 17.5h-106z" />
    <glyph glyph-name="Ccedilla" unicode="&#x417;" horiz-adv-x="733" 
d="M294 311l-0.00195312 138.999h95c26 0 44 2 54 6c22 8.66699 33 30.667 33 66c0 24.667 -6.66699 42 -20 52c-17.333 12.667 -50 19 -98 19c-42 0 -71.333 -5.16699 -88 -15.5s-25 -30.833 -25 -61.5h-191v31c0 78.667 26.667 134.334 80 167.001
c46.667 28.667 122.334 43 227.001 43c105.333 0 182.333 -13.333 231 -40c56 -30.667 84 -83.667 84 -159c0 -53.333 -7 -92 -21 -116c-17.333 -30.667 -49.666 -49.667 -96.999 -57v-8c46.667 -4 80 -19.333 100 -46s30 -64 30 -112c0 -90 -20 -150 -60 -180
c-43.333 -32.667 -131.666 -49 -264.999 -49c-114.667 0 -194 14.667 -238 44c-53.333 36 -80 104.667 -80 206h192c0 -37.333 8.16699 -61 24.5 -71s50.166 -15 101.499 -15c48 0 80.833 5.5 98.5 16.5s26.5 32.167 26.5 63.5c0 28 -6.5 47.833 -19.5 59.5
s-35.833 17.5 -68.5 17.5h-106z" />
    <glyph glyph-name="Egrave" unicode="&#xc8;" horiz-adv-x="824" 
d="M255 750v-494h7l234 494h263v-750h-190v494h-7l-225 -494h-272v750h190z" />
    <glyph glyph-name="Egrave" unicode="&#x418;" horiz-adv-x="824" 
d="M255 750v-494h7l234 494h263v-750h-190v494h-7l-225 -494h-272v750h190z" />
    <glyph glyph-name="Eacute" unicode="&#xc9;" horiz-adv-x="824" 
d="M255 750v-494h7l234 494h263v-750h-190v494h-7l-225 -494h-272v750h190zM304 958c0 -26 6.66797 -43.667 20.001 -53s37 -14 71 -14s57.667 4.5 71 13.5s20 26.833 20 53.5h84c0 -62.667 -15.667 -105 -47 -127c-24.667 -17.333 -67.334 -26 -128.001 -26
c-62 0 -104.667 8.33301 -128 25c-31.333 22 -47 64.667 -47 128h84z" />
    <glyph glyph-name="Eacute" unicode="&#x419;" horiz-adv-x="824" 
d="M255 750v-494h7l234 494h263v-750h-190v494h-7l-225 -494h-272v750h190zM304 958c0 -26 6.66797 -43.667 20.001 -53s37 -14 71 -14s57.667 4.5 71 13.5s20 26.833 20 53.5h84c0 -62.667 -15.667 -105 -47 -127c-24.667 -17.333 -67.334 -26 -128.001 -26
c-62 0 -104.667 8.33301 -128 25c-31.333 22 -47 64.667 -47 128h84z" />
    <glyph glyph-name="Ecircumflex" unicode="&#xca;" horiz-adv-x="782" 
d="M265 750v-282h60l193 282h242l-264 -368l286 -382h-248l-209 294h-60v-294h-200v750h200z" />
    <glyph glyph-name="Ecircumflex" unicode="&#x41a;" horiz-adv-x="782" 
d="M265 750v-282h60l193 282h242l-264 -368l286 -382h-248l-209 294h-60v-294h-200v750h200z" />
    <glyph glyph-name="Edieresis" unicode="&#xcb;" horiz-adv-x="817" 
d="M145 750h606.999v-750h-200v576h-217v-315c0 -84.667 -18 -150 -54 -196c-38 -48.667 -94.333 -73 -169 -73c-22 0 -40.167 0.666992 -54.5 2s-30.166 3.66602 -47.499 6.99902v162c9.33301 -3.33301 19.833 -5.33301 31.5 -6s21.5 -1 29.5 -1
c26.667 0 45.667 7.83301 57 23.5s17 41.834 17 78.501v492z" />
    <glyph glyph-name="Edieresis" unicode="&#x41b;" horiz-adv-x="817" 
d="M145 750h606.999v-750h-200v576h-217v-315c0 -84.667 -18 -150 -54 -196c-38 -48.667 -94.333 -73 -169 -73c-22 0 -40.167 0.666992 -54.5 2s-30.166 3.66602 -47.499 6.99902v162c9.33301 -3.33301 19.833 -5.33301 31.5 -6s21.5 -1 29.5 -1
c26.667 0 45.667 7.83301 57 23.5s17 41.834 17 78.501v492z" />
    <glyph glyph-name="Igrave" unicode="&#xcc;" horiz-adv-x="1058" 
d="M65 750h317l143 -471h7l136 471h325v-750h-200l20 575l-9 2l-188 -577h-173l-189 577l-9 -2l20 -575h-200v750z" />
    <glyph glyph-name="Igrave" unicode="&#x41c;" horiz-adv-x="1058" 
d="M65 750h317l143 -471h7l136 471h325v-750h-200l20 575l-9 2l-188 -577h-173l-189 577l-9 -2l20 -575h-200v750z" />
    <glyph glyph-name="Iacute" unicode="&#xcd;" horiz-adv-x="791" 
d="M265 750v-282h261v282h200v-750h-200v294h-261v-294h-200v750h200z" />
    <glyph glyph-name="Iacute" unicode="&#x41d;" horiz-adv-x="791" 
d="M265 750v-282h261v282h200v-750h-200v294h-261v-294h-200v750h200z" />
    <glyph glyph-name="Icircumflex" unicode="&#xce;" horiz-adv-x="784" 
d="M392 -10c-114.667 0 -198.001 17.3301 -250.001 51.9971c-64.667 42.667 -97 118.334 -97 227.001v212c0 106.667 32.333 181.334 97 224.001c52.667 34.667 136 52 250 52c114.667 0 198 -17 250 -51c64.667 -42 97 -117 97 -225v-212
c0 -107.333 -32.333 -182.666 -97 -225.999c-53.333 -35.333 -136.666 -53 -249.999 -53zM391.999 163.997c54.667 0 91 7 109 21c21.333 16.667 32 52 32 106v169c0 52.667 -10.333 87 -31 103c-17.333 13.333 -54 20 -110 20s-92.333 -6.33301 -109 -19
c-21.333 -16 -32 -50.667 -32 -104v-169c0 -53.333 10.333 -88.333 31 -105c18 -14.667 54.667 -22 110 -22z" />
    <glyph glyph-name="Icircumflex" unicode="&#x41e;" horiz-adv-x="784" 
d="M392 -10c-114.667 0 -198.001 17.3301 -250.001 51.9971c-64.667 42.667 -97 118.334 -97 227.001v212c0 106.667 32.333 181.334 97 224.001c52.667 34.667 136 52 250 52c114.667 0 198 -17 250 -51c64.667 -42 97 -117 97 -225v-212
c0 -107.333 -32.333 -182.666 -97 -225.999c-53.333 -35.333 -136.666 -53 -249.999 -53zM391.999 163.997c54.667 0 91 7 109 21c21.333 16.667 32 52 32 106v169c0 52.667 -10.333 87 -31 103c-17.333 13.333 -54 20 -110 20s-92.333 -6.33301 -109 -19
c-21.333 -16 -32 -50.667 -32 -104v-169c0 -53.333 10.333 -88.333 31 -105c18 -14.667 54.667 -22 110 -22z" />
    <glyph glyph-name="Idieresis" unicode="&#xcf;" horiz-adv-x="791" 
d="M65 750h661v-750h-200v576h-261v-576h-200v750z" />
    <glyph glyph-name="Idieresis" unicode="&#x41f;" horiz-adv-x="791" 
d="M65 750h661v-750h-200v576h-261v-576h-200v750z" />
    <glyph glyph-name="Eth" unicode="&#xd0;" horiz-adv-x="743" 
d="M265 208v-208h-200v750h377c93.333 0 159.333 -19.667 198 -59s58 -108 58 -206c0 -108 -16.333 -180.333 -49 -217c-35.333 -40 -104.333 -60 -207 -60h-177zM265 586v-214.001h137c38 0 62.5 6.5 73.5 19.5s16.5 43.5 16.5 91.5c0 40.667 -5 67.334 -15 80.001
c-12 15.333 -37 23 -75 23h-137z" />
    <glyph glyph-name="Eth" unicode="&#x420;" horiz-adv-x="743" 
d="M265 208v-208h-200v750h377c93.333 0 159.333 -19.667 198 -59s58 -108 58 -206c0 -108 -16.333 -180.333 -49 -217c-35.333 -40 -104.333 -60 -207 -60h-177zM265 586v-214.001h137c38 0 62.5 6.5 73.5 19.5s16.5 43.5 16.5 91.5c0 40.667 -5 67.334 -15 80.001
c-12 15.333 -37 23 -75 23h-137z" />
    <glyph glyph-name="Ntilde" unicode="&#xd1;" horiz-adv-x="750" 
d="M705 481l-206 -0.000976562v29c0 27.333 -12 47 -36 59c-19.333 9.33301 -48.333 14 -87 14c-54 0 -89 -10.333 -105 -31c-13.333 -17.333 -20 -54.666 -20 -111.999v-117c0 -62.667 5.66699 -103 17 -121c16 -25.333 52 -38 108 -38c46 0 76.667 4.66699 92 14
c20.667 12.667 31 39.334 31 80.001v22h206v-22c0 -104.667 -21.5 -175.5 -64.5 -212.5s-123.833 -55.5 -242.5 -55.5c-84 0 -144.667 4.33301 -182 13c-56 13.333 -97.667 39.333 -125 78c-30.667 44 -46 109.667 -46 197v194c0 115.333 31.333 193.666 94 234.999
c50 33.333 136.333 50 259 50c105.333 0 181.333 -17 228 -51c52.667 -38 79 -103.333 79 -196v-29z" />
    <glyph glyph-name="Ntilde" unicode="&#x421;" horiz-adv-x="750" 
d="M705 481l-206 -0.000976562v29c0 27.333 -12 47 -36 59c-19.333 9.33301 -48.333 14 -87 14c-54 0 -89 -10.333 -105 -31c-13.333 -17.333 -20 -54.666 -20 -111.999v-117c0 -62.667 5.66699 -103 17 -121c16 -25.333 52 -38 108 -38c46 0 76.667 4.66699 92 14
c20.667 12.667 31 39.334 31 80.001v22h206v-22c0 -104.667 -21.5 -175.5 -64.5 -212.5s-123.833 -55.5 -242.5 -55.5c-84 0 -144.667 4.33301 -182 13c-56 13.333 -97.667 39.333 -125 78c-30.667 44 -46 109.667 -46 197v194c0 115.333 31.333 193.666 94 234.999
c50 33.333 136.333 50 259 50c105.333 0 181.333 -17 228 -51c52.667 -38 79 -103.333 79 -196v-29z" />
    <glyph glyph-name="Ograve" unicode="&#xd2;" horiz-adv-x="644" 
d="M422 576v-576h-200v576h-202v174h604v-174h-202z" />
    <glyph glyph-name="Ograve" unicode="&#x422;" horiz-adv-x="644" 
d="M422 576v-576h-200v576h-202v174h604v-174h-202z" />
    <glyph glyph-name="Oacute" unicode="&#xd3;" horiz-adv-x="740" 
d="M2 750l226.997 -0.000976562l132 -322h9l129 322h231l-292 -592c-29.333 -59.333 -62.166 -102.166 -98.499 -128.499s-80.833 -39.5 -133.5 -39.5c-22 0 -38 0.5 -48 1.5s-27.333 3.5 -52 7.5v162c14 -4.66699 36 -7 66 -7c30.667 0 51.334 3.16699 62.001 9.5
s19.334 19.833 26.001 40.5z" />
    <glyph glyph-name="Oacute" unicode="&#x423;" horiz-adv-x="740" 
d="M2 750l226.997 -0.000976562l132 -322h9l129 322h231l-292 -592c-29.333 -59.333 -62.166 -102.166 -98.499 -128.499s-80.833 -39.5 -133.5 -39.5c-22 0 -38 0.5 -48 1.5s-27.333 3.5 -52 7.5v162c14 -4.66699 36 -7 66 -7c30.667 0 51.334 3.16699 62.001 9.5
s19.334 19.833 26.001 40.5z" />
    <glyph glyph-name="Ocircumflex" unicode="&#xd4;" horiz-adv-x="1040" 
d="M620 0l-200 -0.000976562v78h-103c-100.667 0 -170.667 20.333 -210 61c-41.333 43.333 -62 122 -62 236c0 112.667 20.5 190.834 61.5 234.501s111.5 65.5 211.5 65.5h102v75h200v-75h101c100.667 0 171.5 -21.833 212.5 -65.5s61.5 -121.834 61.5 -234.501
c0 -113.333 -20.167 -191.166 -60.5 -233.499s-111.5 -63.5 -213.5 -63.5h-101v-78zM620 510.999v-269h68c38 0 64.333 9.33301 79 28s22 53.667 22 105c0 49.333 -7.33301 84.333 -22 105s-41 31 -79 31h-68zM420 241.999v269h-69c-37.333 0 -63.333 -10.333 -78 -31
s-22 -55.667 -22 -105c0 -51.333 7 -86.333 21 -105s39.667 -28 77 -28h71z" />
    <glyph glyph-name="Ocircumflex" unicode="&#x424;" horiz-adv-x="1040" 
d="M620 0l-200 -0.000976562v78h-103c-100.667 0 -170.667 20.333 -210 61c-41.333 43.333 -62 122 -62 236c0 112.667 20.5 190.834 61.5 234.501s111.5 65.5 211.5 65.5h102v75h200v-75h101c100.667 0 171.5 -21.833 212.5 -65.5s61.5 -121.834 61.5 -234.501
c0 -113.333 -20.167 -191.166 -60.5 -233.499s-111.5 -63.5 -213.5 -63.5h-101v-78zM620 510.999v-269h68c38 0 64.333 9.33301 79 28s22 53.667 22 105c0 49.333 -7.33301 84.333 -22 105s-41 31 -79 31h-68zM420 241.999v269h-69c-37.333 0 -63.333 -10.333 -78 -31
s-22 -55.667 -22 -105c0 -51.333 7 -86.333 21 -105s39.667 -28 77 -28h71z" />
    <glyph glyph-name="Otilde" unicode="&#xd5;" horiz-adv-x="775" 
d="M754 750l-207 -364l223 -386h-233l-149 289l-148 -289h-235l225 386l-211 364h234l135 -275l136 275h230z" />
    <glyph glyph-name="Otilde" unicode="&#x425;" horiz-adv-x="775" 
d="M754 750l-207 -364l223 -386h-233l-149 289l-148 -289h-235l225 386l-211 364h234l135 -275l136 275h230z" />
    <glyph glyph-name="Odieresis" unicode="&#xd6;" horiz-adv-x="810" 
d="M265 750v-576h261v576h200v-576h62v-345h-190v171h-533v750h200z" />
    <glyph glyph-name="Odieresis" unicode="&#x426;" horiz-adv-x="810" 
d="M265 750v-576h261v576h200v-576h62v-345h-190v171h-533v750h200z" />
    <glyph glyph-name="multiply" unicode="&#xd7;" horiz-adv-x="763" 
d="M65 750l200 0.000976562v-185c0 -44.667 7.66699 -74.334 23 -89.001s46.333 -22 93 -22c45.333 0 84 4.66699 116 14v282h200v-750h-200v300c-20.667 -6 -45 -10.833 -73 -14.5s-58 -5.5 -90 -5.5c-100 0 -169.833 19.833 -209.5 59.5s-59.5 105.167 -59.5 196.5v214z
" />
    <glyph glyph-name="multiply" unicode="&#x427;" horiz-adv-x="763" 
d="M65 750l200 0.000976562v-185c0 -44.667 7.66699 -74.334 23 -89.001s46.333 -22 93 -22c45.333 0 84 4.66699 116 14v282h200v-750h-200v300c-20.667 -6 -45 -10.833 -73 -14.5s-58 -5.5 -90 -5.5c-100 0 -169.833 19.833 -209.5 59.5s-59.5 105.167 -59.5 196.5v214z
" />
    <glyph glyph-name="Oslash" unicode="&#xd8;" horiz-adv-x="1118" 
d="M265 750v-576h194v576h200v-576h194v576h200v-750h-988v750h200z" />
    <glyph glyph-name="Oslash" unicode="&#x428;" horiz-adv-x="1118" 
d="M265 750v-576h194v576h200v-576h194v576h200v-750h-988v750h200z" />
    <glyph glyph-name="Ugrave" unicode="&#xd9;" horiz-adv-x="1137" 
d="M265 750v-576h194v576h200v-576h194v576h200v-576h62v-345h-190v171h-860v750h200z" />
    <glyph glyph-name="Ugrave" unicode="&#x429;" horiz-adv-x="1137" 
d="M265 750v-576h194v576h200v-576h194v576h200v-576h62v-345h-190v171h-860v750h200z" />
    <glyph glyph-name="Uacute" unicode="&#xda;" horiz-adv-x="823" 
d="M370 750l-0.000976562 -290h186c78.667 0 136.834 -17.833 174.501 -53.5s56.5 -94.5 56.5 -176.5s-19.667 -141.333 -59 -178c-36.667 -34.667 -94 -52 -172 -52h-386v586h-170v164h370zM369.999 304l0.000976562 -148h139c29.333 0 49.666 5 60.999 15s17 29 17 57
c0 30 -5.5 50.167 -16.5 60.5s-31.5 15.5 -61.5 15.5h-139z" />
    <glyph glyph-name="Uacute" unicode="&#x42a;" horiz-adv-x="823" 
d="M370 750l-0.000976562 -290h186c78.667 0 136.834 -17.833 174.501 -53.5s56.5 -94.5 56.5 -176.5s-19.667 -141.333 -59 -178c-36.667 -34.667 -94 -52 -172 -52h-386v586h-170v164h370zM369.999 304l0.000976562 -148h139c29.333 0 49.666 5 60.999 15s17 29 17 57
c0 30 -5.5 50.167 -16.5 60.5s-31.5 15.5 -61.5 15.5h-139z" />
    <glyph glyph-name="Ucircumflex" unicode="&#xdb;" horiz-adv-x="1060" 
d="M265 750l-0.000976562 -290h186c78.667 0 136.834 -17.833 174.501 -53.5s56.5 -94.5 56.5 -176.5s-19.667 -141.333 -59 -178c-36.667 -34.667 -94 -52 -172 -52h-386v750h200zM264.999 304l0.000976562 -148h139c29.333 0 49.666 5 60.999 15s17 29 17 57
c0 30 -5.5 50.167 -16.5 60.5s-31.5 15.5 -61.5 15.5h-139zM995 750v-750h-200v750h200z" />
    <glyph glyph-name="Ucircumflex" unicode="&#x42b;" horiz-adv-x="1060" 
d="M265 750l-0.000976562 -290h186c78.667 0 136.834 -17.833 174.501 -53.5s56.5 -94.5 56.5 -176.5s-19.667 -141.333 -59 -178c-36.667 -34.667 -94 -52 -172 -52h-386v750h200zM264.999 304l0.000976562 -148h139c29.333 0 49.666 5 60.999 15s17 29 17 57
c0 30 -5.5 50.167 -16.5 60.5s-31.5 15.5 -61.5 15.5h-139zM995 750v-750h-200v750h200z" />
    <glyph glyph-name="Udieresis" unicode="&#xdc;" horiz-adv-x="727" 
d="M265 750l-0.000976562 -290h186c78.667 0 136.834 -17.833 174.501 -53.5s56.5 -94.5 56.5 -176.5s-19.667 -141.333 -59 -178c-36.667 -34.667 -94 -52 -172 -52h-386v750h200zM264.999 304l0.000976562 -148h139c29.333 0 49.666 5 60.999 15s17 29 17 57
c0 30 -5.5 50.167 -16.5 60.5s-31.5 15.5 -61.5 15.5h-139z" />
    <glyph glyph-name="Udieresis" unicode="&#x42c;" horiz-adv-x="727" 
d="M265 750l-0.000976562 -290h186c78.667 0 136.834 -17.833 174.501 -53.5s56.5 -94.5 56.5 -176.5s-19.667 -141.333 -59 -178c-36.667 -34.667 -94 -52 -172 -52h-386v750h200zM264.999 304l0.000976562 -148h139c29.333 0 49.666 5 60.999 15s17 29 17 57
c0 30 -5.5 50.167 -16.5 60.5s-31.5 15.5 -61.5 15.5h-139z" />
    <glyph glyph-name="Yacute" unicode="&#xdd;" horiz-adv-x="740" 
d="M241 501l-206.001 -0.00195312c0 78 28.833 140.167 86.5 186.5s135.834 69.5 234.501 69.5c120 0 204 -17.333 252 -52c58 -41.333 87 -119 87 -233v-194c0 -86.667 -14.333 -152 -43 -196c-25.333 -39.333 -65 -65.333 -119 -78c-38.667 -9.33301 -98.667 -14 -180 -14
c-111.333 0 -189.333 14.333 -234 43c-56 36 -84 104.333 -84 205v32h206v-22c0 -41.333 10 -68 30 -80c15.333 -9.33301 46.333 -14 93 -14c52 0 86.667 12.667 104 38c14 20.667 21 60.334 21 119.001h-190v139h190c0 56.667 -6.66699 93.667 -20 111
c-16.667 21.333 -51.667 32 -105 32c-42.667 0 -72.667 -5.33301 -90 -16c-22 -13.333 -33 -38.666 -33 -75.999z" />
    <glyph glyph-name="Yacute" unicode="&#x42d;" horiz-adv-x="740" 
d="M241 501l-206.001 -0.00195312c0 78 28.833 140.167 86.5 186.5s135.834 69.5 234.501 69.5c120 0 204 -17.333 252 -52c58 -41.333 87 -119 87 -233v-194c0 -86.667 -14.333 -152 -43 -196c-25.333 -39.333 -65 -65.333 -119 -78c-38.667 -9.33301 -98.667 -14 -180 -14
c-111.333 0 -189.333 14.333 -234 43c-56 36 -84 104.333 -84 205v32h206v-22c0 -41.333 10 -68 30 -80c15.333 -9.33301 46.333 -14 93 -14c52 0 86.667 12.667 104 38c14 20.667 21 60.334 21 119.001h-190v139h190c0 56.667 -6.66699 93.667 -20 111
c-16.667 21.333 -51.667 32 -105 32c-42.667 0 -72.667 -5.33301 -90 -16c-22 -13.333 -33 -38.666 -33 -75.999z" />
    <glyph glyph-name="Thorn" unicode="&#xde;" horiz-adv-x="1122" 
d="M265 468l117.999 -0.00195312v13c0 106.667 32.333 181.334 97 224.001c52.667 34.667 136 52 250 52c114.667 0 198 -17 250 -51c64.667 -42 97 -117 97 -225v-212c0 -107.333 -32.667 -182.666 -98 -225.999c-53.333 -35.333 -136.666 -53 -249.999 -53
c-114 0 -197 17.333 -249 52c-64.667 43.333 -97 119 -97 227v25h-118v-294h-200v750h200v-282zM729.999 163.998c54.667 0 90.999 7 108.999 21c21.333 16.667 32 52 32 106v169c0 52.667 -10.333 87 -31 103c-17.333 13.333 -54 20 -110 20c-54.667 0 -91 -7 -109 -21
c-21.333 -16.667 -32 -50.667 -32 -102v-169c0 -52.667 9.83301 -87 29.5 -103s56.834 -24 111.501 -24z" />
    <glyph glyph-name="Thorn" unicode="&#x42e;" horiz-adv-x="1122" 
d="M265 468l117.999 -0.00195312v13c0 106.667 32.333 181.334 97 224.001c52.667 34.667 136 52 250 52c114.667 0 198 -17 250 -51c64.667 -42 97 -117 97 -225v-212c0 -107.333 -32.667 -182.666 -98 -225.999c-53.333 -35.333 -136.666 -53 -249.999 -53
c-114 0 -197 17.333 -249 52c-64.667 43.333 -97 119 -97 227v25h-118v-294h-200v750h200v-282zM729.999 163.998c54.667 0 90.999 7 108.999 21c21.333 16.667 32 52 32 106v169c0 52.667 -10.333 87 -31 103c-17.333 13.333 -54 20 -110 20c-54.667 0 -91 -7 -109 -21
c-21.333 -16.667 -32 -50.667 -32 -102v-169c0 -52.667 9.83301 -87 29.5 -103s56.834 -24 111.501 -24z" />
    <glyph glyph-name="germandbls" unicode="&#xdf;" horiz-adv-x="736" 
d="M471 0v263.999h-94l-132 -264h-229l163 288c-48.667 20.667 -83.167 48.167 -103.5 82.5s-30.5 81.833 -30.5 142.5c0 82.667 18.5 142.834 55.5 180.501s99.167 56.5 186.5 56.5h384v-750h-200zM471 427.999v158h-150c-28.667 0 -48.5 -5.5 -59.5 -16.5
s-16.5 -32.167 -16.5 -63.5c0 -28 7.66699 -48 23 -60s38 -18 68 -18h135z" />
    <glyph glyph-name="germandbls" unicode="&#x42f;" horiz-adv-x="736" 
d="M471 0v263.999h-94l-132 -264h-229l163 288c-48.667 20.667 -83.167 48.167 -103.5 82.5s-30.5 81.833 -30.5 142.5c0 82.667 18.5 142.834 55.5 180.501s99.167 56.5 186.5 56.5h384v-750h-200zM471 427.999v158h-150c-28.667 0 -48.5 -5.5 -59.5 -16.5
s-16.5 -32.167 -16.5 -63.5c0 -28 7.66699 -48 23 -60s38 -18 68 -18h135z" />
    <glyph glyph-name="agrave" unicode="&#xe0;" horiz-adv-x="609" 
d="M388 78l-6.00098 0.00195312c-6 -32.667 -25.333 -56 -58 -70c-24.667 -10.667 -55.667 -16 -93 -16c-65.333 0 -112 10.667 -140 32c-33.333 25.333 -50 69.666 -50 132.999c0 61.333 15.333 104.166 46 128.499s78.667 36.5 144 36.5c39.333 0 68.333 -2.66699 87 -8
c29.333 -8.66699 48 -25.667 56 -51h8v83c0 30.667 -3.33301 51 -10 61c-10.667 16 -33 24 -67 24c-19.333 0 -33 -1.33301 -41 -4c-20 -6.66699 -30 -23.667 -30 -51h-172c0 69.333 24 115 72 137c32 14.667 88.667 22 170 22c94.667 0 158.334 -11.667 191.001 -35
c39.333 -28 59 -85.333 59 -172v-328h-172zM381.999 169.002c0 20 -7.50098 32.668 -22.501 38.001s-38.833 8 -71.5 8c-25.333 0 -43 -2.66699 -53 -8c-14.667 -8 -22 -23 -22 -45c0 -18 5.33301 -32.333 16 -43s30.334 -16 59.001 -16c37.333 0 62.333 4.16699 75 12.5
s19 26.166 19 53.499z" />
    <glyph glyph-name="agrave" unicode="&#x430;" horiz-adv-x="609" 
d="M388 78l-6.00098 0.00195312c-6 -32.667 -25.333 -56 -58 -70c-24.667 -10.667 -55.667 -16 -93 -16c-65.333 0 -112 10.667 -140 32c-33.333 25.333 -50 69.666 -50 132.999c0 61.333 15.333 104.166 46 128.499s78.667 36.5 144 36.5c39.333 0 68.333 -2.66699 87 -8
c29.333 -8.66699 48 -25.667 56 -51h8v83c0 30.667 -3.33301 51 -10 61c-10.667 16 -33 24 -67 24c-19.333 0 -33 -1.33301 -41 -4c-20 -6.66699 -30 -23.667 -30 -51h-172c0 69.333 24 115 72 137c32 14.667 88.667 22 170 22c94.667 0 158.334 -11.667 191.001 -35
c39.333 -28 59 -85.333 59 -172v-328h-172zM381.999 169.002c0 20 -7.50098 32.668 -22.501 38.001s-38.833 8 -71.5 8c-25.333 0 -43 -2.66699 -53 -8c-14.667 -8 -22 -23 -22 -45c0 -18 5.33301 -32.333 16 -43s30.334 -16 59.001 -16c37.333 0 62.333 4.16699 75 12.5
s19 26.166 19 53.499z" />
    <glyph glyph-name="aacute" unicode="&#xe1;" horiz-adv-x="609" 
d="M199 418c6.66699 28 22 50.6689 46 68.002s52.667 26 86 26c88 0 148.833 -16.833 182.5 -50.5s50.5 -100.167 50.5 -199.5c0 -106.667 -17 -178.334 -51 -215.001s-102.667 -55 -206 -55c-105.333 0 -176 21.333 -212 64c-33.333 39.333 -50 115.333 -50 228v96
c0 112.667 19.667 194.5 59 245.5s105 76.5 197 76.5c44 0 73.5 2.66699 88.5 8s22.5 15.666 22.5 30.999h124c0 -58 -17.167 -99 -51.5 -123s-87.833 -36 -160.5 -36c-48 0 -81 -9.33301 -99 -28c-21.333 -22 -32 -63 -32 -123v-13h6zM310 380.002
c-37.333 0 -62.167 -7.83398 -74.5 -23.501s-18.5 -47.167 -18.5 -94.5c0 -59.333 5 -97.166 15 -113.499s35 -24.5 75 -24.5c38.667 0 63 9 73 27c8 14.667 12 51.667 12 111c0 49.333 -4.66699 81.333 -14 96s-32 22 -68 22z" />
    <glyph glyph-name="aacute" unicode="&#x431;" horiz-adv-x="609" 
d="M199 418c6.66699 28 22 50.6689 46 68.002s52.667 26 86 26c88 0 148.833 -16.833 182.5 -50.5s50.5 -100.167 50.5 -199.5c0 -106.667 -17 -178.334 -51 -215.001s-102.667 -55 -206 -55c-105.333 0 -176 21.333 -212 64c-33.333 39.333 -50 115.333 -50 228v96
c0 112.667 19.667 194.5 59 245.5s105 76.5 197 76.5c44 0 73.5 2.66699 88.5 8s22.5 15.666 22.5 30.999h124c0 -58 -17.167 -99 -51.5 -123s-87.833 -36 -160.5 -36c-48 0 -81 -9.33301 -99 -28c-21.333 -22 -32 -63 -32 -123v-13h6zM310 380.002
c-37.333 0 -62.167 -7.83398 -74.5 -23.501s-18.5 -47.167 -18.5 -94.5c0 -59.333 5 -97.166 15 -113.499s35 -24.5 75 -24.5c38.667 0 63 9 73 27c8 14.667 12 51.667 12 111c0 49.333 -4.66699 81.333 -14 96s-32 22 -68 22z" />
    <glyph glyph-name="acircumflex" unicode="&#xe2;" horiz-adv-x="580" 
d="M217 218v-106.999h92c24 0 40.667 3.66699 50 11s14 21.333 14 42c0 21.333 -4.66699 35.666 -14 42.999s-26 11 -50 11h-92zM55 0.000976562l-0.000976562 524.999h284c60.667 0 105 -9.33301 133 -28c32 -21.333 48 -57.666 48 -108.999c0 -31.333 -7 -55.333 -21 -72
s-35.333 -28.667 -64 -36v-4c32.667 -5.33301 58.334 -18.333 77.001 -39s28 -49 28 -85c0 -58.667 -14.167 -98.667 -42.5 -120s-77.5 -32 -147.5 -32h-295zM216.999 414v-91.001h86c21.333 0 35.833 2.83301 43.5 8.5s11.5 17.834 11.5 36.501c0 16.667 -4 28.5 -12 35.5
s-21.667 10.5 -41 10.5h-88z" />
    <glyph glyph-name="acircumflex" unicode="&#x432;" horiz-adv-x="580" 
d="M217 218v-106.999h92c24 0 40.667 3.66699 50 11s14 21.333 14 42c0 21.333 -4.66699 35.666 -14 42.999s-26 11 -50 11h-92zM55 0.000976562l-0.000976562 524.999h284c60.667 0 105 -9.33301 133 -28c32 -21.333 48 -57.666 48 -108.999c0 -31.333 -7 -55.333 -21 -72
s-35.333 -28.667 -64 -36v-4c32.667 -5.33301 58.334 -18.333 77.001 -39s28 -49 28 -85c0 -58.667 -14.167 -98.667 -42.5 -120s-77.5 -32 -147.5 -32h-295zM216.999 414v-91.001h86c21.333 0 35.833 2.83301 43.5 8.5s11.5 17.834 11.5 36.501c0 16.667 -4 28.5 -12 35.5
s-21.667 10.5 -41 10.5h-88z" />
    <glyph glyph-name="atilde" unicode="&#xe3;" horiz-adv-x="457" 
d="M55 525h382v-126h-210v-399h-172v525z" />
    <glyph glyph-name="atilde" unicode="&#x433;" horiz-adv-x="457" 
d="M55 525h382v-126h-210v-399h-172v525z" />
    <glyph glyph-name="adieresis" unicode="&#xe4;" horiz-adv-x="659" 
d="M134 525h456.001v-405h49v-256h-154v136h-311v-136h-154v256h51c21.333 28.667 37.166 61.667 47.499 99s15.5 82.333 15.5 135v171zM418.001 120v285h-122v-56c0 -61.333 -3.5 -106.5 -10.5 -135.5s-21.167 -60.167 -42.5 -93.5h175z" />
    <glyph glyph-name="adieresis" unicode="&#x434;" horiz-adv-x="659" 
d="M134 525h456.001v-405h49v-256h-154v136h-311v-136h-154v256h51c21.333 28.667 37.166 61.667 47.499 99s15.5 82.333 15.5 135v171zM418.001 120v285h-122v-56c0 -61.333 -3.5 -106.5 -10.5 -135.5s-21.167 -60.167 -42.5 -93.5h175z" />
    <glyph glyph-name="aring" unicode="&#xe5;" horiz-adv-x="583" 
d="M207 328l169.001 0.00195312c0 37.333 -6.33301 61.166 -19 71.499s-35.334 15.5 -68.001 15.5c-31.333 0 -52.833 -5.83301 -64.5 -17.5s-17.5 -34.834 -17.5 -69.501zM548.001 233.002l-341 0.00292969c0 -48 5.33301 -80.167 16 -96.5s33.667 -24.5 69 -24.5
c31.333 0 52 2.33301 62 7c14.667 7.33301 22 23.666 22 48.999h172c0 -74 -24.333 -123.667 -73 -149c-34.667 -18 -95.667 -27 -183 -27c-101.333 0 -169.5 19.667 -204.5 59s-52.5 109.666 -52.5 210.999c0 104 16.333 174.667 49 212c36 40.667 105.333 61 208 61
c99.333 0 166.833 -18.833 202.5 -56.5s53.5 -109.834 53.5 -216.501v-29z" />
    <glyph glyph-name="aring" unicode="&#x435;" horiz-adv-x="583" 
d="M207 328l169.001 0.00195312c0 37.333 -6.33301 61.166 -19 71.499s-35.334 15.5 -68.001 15.5c-31.333 0 -52.833 -5.83301 -64.5 -17.5s-17.5 -34.834 -17.5 -69.501zM548.001 233.002l-341 0.00292969c0 -48 5.33301 -80.167 16 -96.5s33.667 -24.5 69 -24.5
c31.333 0 52 2.33301 62 7c14.667 7.33301 22 23.666 22 48.999h172c0 -74 -24.333 -123.667 -73 -149c-34.667 -18 -95.667 -27 -183 -27c-101.333 0 -169.5 19.667 -204.5 59s-52.5 109.666 -52.5 210.999c0 104 16.333 174.667 49 212c36 40.667 105.333 61 208 61
c99.333 0 166.833 -18.833 202.5 -56.5s53.5 -109.834 53.5 -216.501v-29z" />
    <glyph glyph-name="ae" unicode="&#xe6;" horiz-adv-x="836" 
d="M496 328h30l98 197h173l-141 -252l173 -273h-185l-118 213h-30v-213h-160v213h-30l-118 -213h-185l173 273l-141 252h173l98 -197h30v197h160v-197z" />
    <glyph glyph-name="ae" unicode="&#x436;" horiz-adv-x="836" 
d="M496 328h30l98 197h173l-141 -252l173 -273h-185l-118 213h-30v-213h-160v213h-30l-118 -213h-185l173 273l-141 252h173l98 -197h30v197h160v-197z" />
    <glyph glyph-name="ccedilla" unicode="&#xe7;" horiz-adv-x="573" 
d="M201 368h-162.001v26c0 52.667 23.333 90.334 70 113.001c38.667 18.667 95 28 169 28c86 0 147.5 -10.833 184.5 -32.5s55.5 -60.834 55.5 -117.501c0 -30 -7.16699 -53.5 -21.5 -70.5s-35.5 -28.5 -63.5 -34.5v-4c70 -9.33301 105 -50.666 105 -123.999
c0 -64 -20.333 -107.333 -61 -130c-35.333 -20 -98.666 -30 -189.999 -30c-94.667 0 -159.334 10 -194.001 30c-40.667 24 -61 71 -61 141h172c0 -24.667 5.16699 -40.834 15.5 -48.501s32.5 -11.5 66.5 -11.5c34.667 0 57.5 4 68.5 12s16.5 23 16.5 45
c0 23.333 -5.66699 38.833 -17 46.5s-35.666 11.5 -72.999 11.5h-56v105h59c28 0 47 3.33301 57 10s15 19.667 15 39s-5.5 32.833 -16.5 40.5s-31.5 11.5 -61.5 11.5c-29.333 0 -49.5 -3.83301 -60.5 -11.5s-16.5 -22.5 -16.5 -44.5z" />
    <glyph glyph-name="ccedilla" unicode="&#x437;" horiz-adv-x="573" 
d="M201 368h-162.001v26c0 52.667 23.333 90.334 70 113.001c38.667 18.667 95 28 169 28c86 0 147.5 -10.833 184.5 -32.5s55.5 -60.834 55.5 -117.501c0 -30 -7.16699 -53.5 -21.5 -70.5s-35.5 -28.5 -63.5 -34.5v-4c70 -9.33301 105 -50.666 105 -123.999
c0 -64 -20.333 -107.333 -61 -130c-35.333 -20 -98.666 -30 -189.999 -30c-94.667 0 -159.334 10 -194.001 30c-40.667 24 -61 71 -61 141h172c0 -24.667 5.16699 -40.834 15.5 -48.501s32.5 -11.5 66.5 -11.5c34.667 0 57.5 4 68.5 12s16.5 23 16.5 45
c0 23.333 -5.66699 38.833 -17 46.5s-35.666 11.5 -72.999 11.5h-56v105h59c28 0 47 3.33301 57 10s15 19.667 15 39s-5.5 32.833 -16.5 40.5s-31.5 11.5 -61.5 11.5c-29.333 0 -49.5 -3.83301 -60.5 -11.5s-16.5 -22.5 -16.5 -44.5z" />
    <glyph glyph-name="egrave" unicode="&#xe8;" horiz-adv-x="607" 
d="M55 525h154v-322h8l140 322h195v-525h-154v324h-5l-141 -324h-197v525z" />
    <glyph glyph-name="egrave" unicode="&#x438;" horiz-adv-x="607" 
d="M55 525h154v-322h8l140 322h195v-525h-154v324h-5l-141 -324h-197v525z" />
    <glyph glyph-name="eacute" unicode="&#xe9;" horiz-adv-x="607" 
d="M55 525h154v-322h8l135 322h200v-525h-154v324h-5l-141 -324h-197v525zM360 712h74c0 -50.667 -11.5 -85.5 -34.5 -104.5s-60.833 -28.5 -113.5 -28.5c-48.667 0 -83.667 9 -105 27c-24.667 20.667 -37 56 -37 106h74c0 -24.667 5.16699 -40.667 15.5 -48
s28.5 -11 54.5 -11s44.5 3.66699 55.5 11s16.5 23.333 16.5 48z" />
    <glyph glyph-name="eacute" unicode="&#x439;" horiz-adv-x="607" 
d="M55 525h154v-322h8l135 322h200v-525h-154v324h-5l-141 -324h-197v525zM360 712h74c0 -50.667 -11.5 -85.5 -34.5 -104.5s-60.833 -28.5 -113.5 -28.5c-48.667 0 -83.667 9 -105 27c-24.667 20.667 -37 56 -37 106h74c0 -24.667 5.16699 -40.667 15.5 -48
s28.5 -11 54.5 -11s44.5 3.66699 55.5 11s16.5 23.333 16.5 48z" />
    <glyph glyph-name="ecircumflex" unicode="&#xea;" horiz-adv-x="592" 
d="M227 525v-197h30l104 197h189l-148 -252l182 -273h-201l-126 213h-30v-213h-172v525h172z" />
    <glyph glyph-name="ecircumflex" unicode="&#x43a;" horiz-adv-x="592" 
d="M227 525v-197h30l104 197h189l-148 -252l182 -273h-201l-126 213h-30v-213h-172v525h172z" />
    <glyph glyph-name="edieresis" unicode="&#xeb;" horiz-adv-x="641" 
d="M128 525l458 0.000976562v-525h-172v399h-124v-169c0 -87.333 -18.333 -150 -55 -188c-32 -33.333 -79 -50 -141 -50c-26 0 -50.667 1.33301 -74 4v124l35 -2c28.667 0 48.667 11 60 33c8.66699 17.333 13 44.666 13 81.999v292z" />
    <glyph glyph-name="edieresis" unicode="&#x43b;" horiz-adv-x="641" 
d="M128 525l458 0.000976562v-525h-172v399h-124v-169c0 -87.333 -18.333 -150 -55 -188c-32 -33.333 -79 -50 -141 -50c-26 0 -50.667 1.33301 -74 4v124l35 -2c28.667 0 48.667 11 60 33c8.66699 17.333 13 44.666 13 81.999v292z" />
    <glyph glyph-name="igrave" unicode="&#xec;" horiz-adv-x="782" 
d="M323 0l-108 390h-5v-390h-154v525h251l80 -322h8l80 322h251v-525h-154v390h-5l-108 -390h-136z" />
    <glyph glyph-name="igrave" unicode="&#x43c;" horiz-adv-x="782" 
d="M323 0l-108 390h-5v-390h-154v525h251l80 -322h8l80 322h251v-525h-154v390h-5l-108 -390h-136z" />
    <glyph glyph-name="iacute" unicode="&#xed;" horiz-adv-x="615" 
d="M227 525v-177h161v177h172v-525h-172v222h-161v-222h-172v525h172z" />
    <glyph glyph-name="iacute" unicode="&#x43d;" horiz-adv-x="615" 
d="M227 525v-177h161v177h172v-525h-172v222h-161v-222h-172v525h172z" />
    <glyph glyph-name="icircumflex" unicode="&#xee;" horiz-adv-x="595" 
d="M297 535c109.333 0 180.5 -17.502 213.5 -52.502s49.5 -108.5 49.5 -220.5c0 -109.333 -16.667 -181.666 -50 -216.999s-104.333 -53 -213 -53c-105.333 0 -175.333 18.333 -210 55s-52 108.334 -52 215.001c0 110 16.5 183 49.5 219s103.833 54 212.5 54zM388 261.998
c0 54 -5.66699 91.001 -17 111.001s-36.333 30 -75 30c-36.667 0 -60.667 -10 -72 -30s-17 -56.667 -17 -110c0 -60 5.16699 -98.167 15.5 -114.5s34.833 -24.5 73.5 -24.5c39.333 0 64.5 8.16699 75.5 24.5s16.5 54.166 16.5 113.499z" />
    <glyph glyph-name="icircumflex" unicode="&#x43e;" horiz-adv-x="595" 
d="M297 535c109.333 0 180.5 -17.502 213.5 -52.502s49.5 -108.5 49.5 -220.5c0 -109.333 -16.667 -181.666 -50 -216.999s-104.333 -53 -213 -53c-105.333 0 -175.333 18.333 -210 55s-52 108.334 -52 215.001c0 110 16.5 183 49.5 219s103.833 54 212.5 54zM388 261.998
c0 54 -5.66699 91.001 -17 111.001s-36.333 30 -75 30c-36.667 0 -60.667 -10 -72 -30s-17 -56.667 -17 -110c0 -60 5.16699 -98.167 15.5 -114.5s34.833 -24.5 73.5 -24.5c39.333 0 64.5 8.16699 75.5 24.5s16.5 54.166 16.5 113.499z" />
    <glyph glyph-name="idieresis" unicode="&#xef;" horiz-adv-x="615" 
d="M55 525h505v-525h-172v399h-161v-399h-172v525z" />
    <glyph glyph-name="idieresis" unicode="&#x43f;" horiz-adv-x="615" 
d="M55 525h505v-525h-172v399h-161v-399h-172v525z" />
    <glyph glyph-name="eth" unicode="&#xf0;" horiz-adv-x="625" 
d="M408 262c0 54 -5.66699 91.001 -17 111.001s-36.333 30 -75 30c-36.667 0 -60.667 -10 -72 -30s-17 -56.667 -17 -110c0 -60 5.16699 -98.167 15.5 -114.5s34.833 -24.5 73.5 -24.5c39.333 0 64.5 8.16699 75.5 24.5s16.5 54.166 16.5 113.499zM227 79.001
l0.000976562 -306h-172v752h172l-4 -83h8c9.33301 34 26.666 58 51.999 72s58 21 98 21c65.333 0 114.833 -15.833 148.5 -47.5s50.5 -81.5 50.5 -149.5v-120c0 -80.667 -15.167 -138.5 -45.5 -173.5s-81.5 -52.5 -153.5 -52.5c-36 0 -64.667 5.33301 -86 16
c-26.667 13.333 -46.667 37 -60 71h-8z" />
    <glyph glyph-name="eth" unicode="&#x440;" horiz-adv-x="625" 
d="M408 262c0 54 -5.66699 91.001 -17 111.001s-36.333 30 -75 30c-36.667 0 -60.667 -10 -72 -30s-17 -56.667 -17 -110c0 -60 5.16699 -98.167 15.5 -114.5s34.833 -24.5 73.5 -24.5c39.333 0 64.5 8.16699 75.5 24.5s16.5 54.166 16.5 113.499zM227 79.001
l0.000976562 -306h-172v752h172l-4 -83h8c9.33301 34 26.666 58 51.999 72s58 21 98 21c65.333 0 114.833 -15.833 148.5 -47.5s50.5 -81.5 50.5 -149.5v-120c0 -80.667 -15.167 -138.5 -45.5 -173.5s-81.5 -52.5 -153.5 -52.5c-36 0 -64.667 5.33301 -86 16
c-26.667 13.333 -46.667 37 -60 71h-8z" />
    <glyph glyph-name="ntilde" unicode="&#xf1;" horiz-adv-x="570" 
d="M540 332l-171.999 0.000976562c0 29.333 -5.16699 48.5 -15.5 57.5s-32.5 13.5 -66.5 13.5c-31.333 0 -52.333 -8.83301 -63 -26.5s-16 -55.834 -16 -114.501c0 -60 4.83301 -98 14.5 -114s31.167 -24 64.5 -24c37.333 0 60.333 5.16699 69 15.5s13 33.166 13 68.499h172
c0 -88.667 -20 -148 -60 -178c-34 -25.333 -98.667 -38 -194 -38c-100 0 -166.833 18.833 -200.5 56.5s-50.5 108.834 -50.5 213.501c0 98 14.667 165.667 44 203c36.667 46.667 105.667 70 207 70c87.333 0 148.666 -11 183.999 -33c46.667 -29.333 70 -86 70 -170z" />
    <glyph glyph-name="ntilde" unicode="&#x441;" horiz-adv-x="570" 
d="M540 332l-171.999 0.000976562c0 29.333 -5.16699 48.5 -15.5 57.5s-32.5 13.5 -66.5 13.5c-31.333 0 -52.333 -8.83301 -63 -26.5s-16 -55.834 -16 -114.501c0 -60 4.83301 -98 14.5 -114s31.167 -24 64.5 -24c37.333 0 60.333 5.16699 69 15.5s13 33.166 13 68.499h172
c0 -88.667 -20 -148 -60 -178c-34 -25.333 -98.667 -38 -194 -38c-100 0 -166.833 18.833 -200.5 56.5s-50.5 108.834 -50.5 213.501c0 98 14.667 165.667 44 203c36.667 46.667 105.667 70 207 70c87.333 0 148.666 -11 183.999 -33c46.667 -29.333 70 -86 70 -170z" />
    <glyph glyph-name="ograve" unicode="&#xf2;" horiz-adv-x="458" 
d="M453 525v-126h-138v-399h-172v399h-138v126h448z" />
    <glyph glyph-name="ograve" unicode="&#x442;" horiz-adv-x="458" 
d="M453 525v-126h-138v-399h-172v399h-138v126h448z" />
    <glyph glyph-name="oacute" unicode="&#xf3;" horiz-adv-x="553" 
d="M183 525l104 -427l87 427h176l-132 -571c-15.333 -68 -38.333 -115.333 -69 -142c-34 -30 -86.333 -45 -157 -45l-59 3v121l30 -4c33.333 0 57.333 11 72 33c12 18 18 44.667 18 80h-94l-156 525h180z" />
    <glyph glyph-name="oacute" unicode="&#x443;" horiz-adv-x="553" 
d="M183 525l104 -427l87 427h176l-132 -571c-15.333 -68 -38.333 -115.333 -69 -142c-34 -30 -86.333 -45 -157 -45l-59 3v121l30 -4c33.333 0 57.333 11 72 33c12 18 18 44.667 18 80h-94l-156 525h180z" />
    <glyph glyph-name="ocircumflex" unicode="&#xf4;" horiz-adv-x="900" 
d="M531 262c0 -41.333 1.33301 -68.668 4 -82.001c7.33301 -37.333 30.333 -56 69 -56c31.333 0 52.333 8.5 63 25.5s16 54.5 16 112.5c0 56.667 -4.83301 94.334 -14.5 113.001s-31.167 28 -64.5 28c-30.667 0 -50.5 -9 -59.5 -27s-13.5 -56 -13.5 -114zM531 -227.002
l-162 0.00292969v306h-8c-10 -26.667 -26.5 -47.834 -49.5 -63.501s-49.167 -23.5 -78.5 -23.5c-68 0 -116.333 17.667 -145 53s-43 93.333 -43 174v120c0 130.667 62.667 196 188 196c34 0 62 -8.33301 84 -25s38 -39.334 48 -68.001h4v308h162v-308l4 -1
c10 28 26.167 50.667 48.5 68s50.5 26 84.5 26c63.333 0 110.333 -15.667 141 -47s46 -80.666 46 -147.999v-120c0 -80.667 -14.5 -138.834 -43.5 -174.501s-77.167 -53.5 -144.5 -53.5c-30 0 -56.167 7.66699 -78.5 23s-38.5 36.666 -48.5 63.999h-9v-306zM369 262.001
c0 57.333 -4.66797 95.165 -14.001 113.498s-29.333 27.5 -60 27.5c-33.333 0 -54.666 -9.16699 -63.999 -27.5s-14 -56.166 -14 -113.499s5.33301 -94.666 16 -111.999s31.667 -26 63 -26s52 12 62 36c7.33301 17.333 11 51.333 11 102z" />
    <glyph glyph-name="ocircumflex" unicode="&#x444;" horiz-adv-x="900" 
d="M531 262c0 -41.333 1.33301 -68.668 4 -82.001c7.33301 -37.333 30.333 -56 69 -56c31.333 0 52.333 8.5 63 25.5s16 54.5 16 112.5c0 56.667 -4.83301 94.334 -14.5 113.001s-31.167 28 -64.5 28c-30.667 0 -50.5 -9 -59.5 -27s-13.5 -56 -13.5 -114zM531 -227.002
l-162 0.00292969v306h-8c-10 -26.667 -26.5 -47.834 -49.5 -63.501s-49.167 -23.5 -78.5 -23.5c-68 0 -116.333 17.667 -145 53s-43 93.333 -43 174v120c0 130.667 62.667 196 188 196c34 0 62 -8.33301 84 -25s38 -39.334 48 -68.001h4v308h162v-308l4 -1
c10 28 26.167 50.667 48.5 68s50.5 26 84.5 26c63.333 0 110.333 -15.667 141 -47s46 -80.666 46 -147.999v-120c0 -80.667 -14.5 -138.834 -43.5 -174.501s-77.167 -53.5 -144.5 -53.5c-30 0 -56.167 7.66699 -78.5 23s-38.5 36.666 -48.5 63.999h-9v-306zM369 262.001
c0 57.333 -4.66797 95.165 -14.001 113.498s-29.333 27.5 -60 27.5c-33.333 0 -54.666 -9.16699 -63.999 -27.5s-14 -56.166 -14 -113.499s5.33301 -94.666 16 -111.999s31.667 -26 63 -26s52 12 62 36c7.33301 17.333 11 51.333 11 102z" />
    <glyph glyph-name="otilde" unicode="&#xf5;" horiz-adv-x="563" 
d="M546 525l-138 -247l152 -278h-202l-75 173l-73 -173h-207l156 278l-135 247h199l60 -145l63 145h200z" />
    <glyph glyph-name="otilde" unicode="&#x445;" horiz-adv-x="563" 
d="M546 525l-138 -247l152 -278h-202l-75 173l-73 -173h-207l156 278l-135 247h199l60 -145l63 145h200z" />
    <glyph glyph-name="odieresis" unicode="&#xf6;" horiz-adv-x="628" 
d="M227 126h161v399h172v-399h48v-262h-154v136h-399v525h172v-399z" />
    <glyph glyph-name="odieresis" unicode="&#x446;" horiz-adv-x="628" 
d="M227 126h161v399h172v-399h48v-262h-154v136h-399v525h172v-399z" />
    <glyph glyph-name="divide" unicode="&#xf7;" horiz-adv-x="597" 
d="M45 525h172v-131c0 -28 5.16699 -46.833 15.5 -56.5s30.5 -14.5 60.5 -14.5c29.333 0 49.5 5.16699 60.5 15.5s16.5 28.833 16.5 55.5v131h172v-525h-172v270h-6c-8.66699 -29.333 -22.667 -49.833 -42 -61.5s-52.333 -17.5 -99 -17.5c-62.667 0 -108 13.333 -136 40
s-42 70.667 -42 132v162z" />
    <glyph glyph-name="divide" unicode="&#x447;" horiz-adv-x="597" 
d="M45 525h172v-131c0 -28 5.16699 -46.833 15.5 -56.5s30.5 -14.5 60.5 -14.5c29.333 0 49.5 5.16699 60.5 15.5s16.5 28.833 16.5 55.5v131h172v-525h-172v270h-6c-8.66699 -29.333 -22.667 -49.833 -42 -61.5s-52.333 -17.5 -99 -17.5c-62.667 0 -108 13.333 -136 40
s-42 70.667 -42 132v162z" />
    <glyph glyph-name="oslash" unicode="&#xf8;" horiz-adv-x="872" 
d="M655 126v399h162v-525h-762v525h162v-399h138v399h162v-399h138z" />
    <glyph glyph-name="oslash" unicode="&#x448;" horiz-adv-x="872" 
d="M655 126v399h162v-525h-762v525h162v-399h138v399h162v-399h138z" />
    <glyph glyph-name="ugrave" unicode="&#xf9;" horiz-adv-x="885" 
d="M655 126v399h162v-399h48v-262h-154v136h-656v525h162v-399h138v399h162v-399h138z" />
    <glyph glyph-name="ugrave" unicode="&#x449;" horiz-adv-x="885" 
d="M655 126v399h162v-399h48v-262h-154v136h-656v525h162v-399h138v399h162v-399h138z" />
    <glyph glyph-name="uacute" unicode="&#xfa;" horiz-adv-x="664" 
d="M306 227v-107h88c23.333 0 39.666 4 48.999 12s14 21.667 14 41c0 20 -4.66699 34 -14 42s-25.666 12 -48.999 12h-88zM0 525l306 -0.000976562v-178h128c65.333 0 113.333 -13.667 144 -41s46 -71.666 46 -132.999c0 -62.667 -14.833 -107.167 -44.5 -133.5
s-78.167 -39.5 -145.5 -39.5h-300v399h-134v126z" />
    <glyph glyph-name="uacute" unicode="&#x44a;" horiz-adv-x="664" 
d="M306 227v-107h88c23.333 0 39.666 4 48.999 12s14 21.667 14 41c0 20 -4.66699 34 -14 42s-25.666 12 -48.999 12h-88zM0 525l306 -0.000976562v-178h128c65.333 0 113.333 -13.667 144 -41s46 -71.666 46 -132.999c0 -62.667 -14.833 -107.167 -44.5 -133.5
s-78.167 -39.5 -145.5 -39.5h-300v399h-134v126z" />
    <glyph glyph-name="ucircumflex" unicode="&#xfb;" horiz-adv-x="848" 
d="M227 227v-107h88c23.333 0 39.666 4 48.999 12s14 21.667 14 41c0 20 -4.66699 34 -14 42s-25.666 12 -48.999 12h-88zM227 525v-178.001h128c65.333 0 113.333 -13.667 144 -41s46 -71.666 46 -132.999c0 -62.667 -14.833 -107.167 -44.5 -133.5
s-78.167 -39.5 -145.5 -39.5h-300v525h172zM793 524.999v-525h-172v525h172z" />
    <glyph glyph-name="ucircumflex" unicode="&#x44b;" horiz-adv-x="848" 
d="M227 227v-107h88c23.333 0 39.666 4 48.999 12s14 21.667 14 41c0 20 -4.66699 34 -14 42s-25.666 12 -48.999 12h-88zM227 525v-178.001h128c65.333 0 113.333 -13.667 144 -41s46 -71.666 46 -132.999c0 -62.667 -14.833 -107.167 -44.5 -133.5
s-78.167 -39.5 -145.5 -39.5h-300v525h172zM793 524.999v-525h-172v525h172z" />
    <glyph glyph-name="udieresis" unicode="&#xfc;" horiz-adv-x="585" 
d="M227 227v-107h88c23.333 0 39.666 4 48.999 12s14 21.667 14 41c0 20 -4.66699 34 -14 42s-25.666 12 -48.999 12h-88zM227 525v-178.001h128c65.333 0 113.333 -13.667 144 -41s46 -71.666 46 -132.999c0 -62.667 -14.833 -107.167 -44.5 -133.5
s-78.167 -39.5 -145.5 -39.5h-300v525h172z" />
    <glyph glyph-name="udieresis" unicode="&#x44c;" horiz-adv-x="585" 
d="M227 227v-107h88c23.333 0 39.666 4 48.999 12s14 21.667 14 41c0 20 -4.66699 34 -14 42s-25.666 12 -48.999 12h-88zM227 525v-178.001h128c65.333 0 113.333 -13.667 144 -41s46 -71.666 46 -132.999c0 -62.667 -14.833 -107.167 -44.5 -133.5
s-78.167 -39.5 -145.5 -39.5h-300v525h172z" />
    <glyph glyph-name="yacute" unicode="&#xfd;" horiz-adv-x="588" 
d="M207 341l-172 0.000976562c0 78 23.667 131.333 71 160c37.333 22.667 98.666 34 183.999 34c101.333 0 170.333 -23 207 -69c30.667 -38.667 46 -106.334 46 -203.001c0 -105.333 -17 -176.833 -51 -214.5s-101.333 -56.5 -202 -56.5
c-91.333 0 -154.666 11.667 -189.999 35c-43.333 28.667 -65 84.667 -65 168h172c0 -33.333 4.83301 -55.5 14.5 -66.5s32.5 -16.5 68.5 -16.5c30 0 51 7 63 21s18 42.333 18 85h-113v105h113c0 36 -6 60.333 -18 73s-33 19 -63 19c-32 0 -53.833 -4.83301 -65.5 -14.5
s-17.5 -29.5 -17.5 -59.5z" />
    <glyph glyph-name="yacute" unicode="&#x44d;" horiz-adv-x="588" 
d="M207 341l-172 0.000976562c0 78 23.667 131.333 71 160c37.333 22.667 98.666 34 183.999 34c101.333 0 170.333 -23 207 -69c30.667 -38.667 46 -106.334 46 -203.001c0 -105.333 -17 -176.833 -51 -214.5s-101.333 -56.5 -202 -56.5
c-91.333 0 -154.666 11.667 -189.999 35c-43.333 28.667 -65 84.667 -65 168h172c0 -33.333 4.83301 -55.5 14.5 -66.5s32.5 -16.5 68.5 -16.5c30 0 51 7 63 21s18 42.333 18 85h-113v105h113c0 36 -6 60.333 -18 73s-33 19 -63 19c-32 0 -53.833 -4.83301 -65.5 -14.5
s-17.5 -29.5 -17.5 -59.5z" />
    <glyph glyph-name="thorn" unicode="&#xfe;" horiz-adv-x="880" 
d="M227 334l83 -0.00292969c0 76.667 19.333 129.334 58 158.001s106.667 43 204 43c109.333 0 180.5 -17.5 213.5 -52.5s49.5 -108.5 49.5 -220.5c0 -109.333 -16.667 -181.666 -50 -216.999s-104.333 -53 -213 -53c-98.667 0 -167 15.333 -205 46s-57 87.334 -57 170.001
h-83v-208h-172v525h172v-191zM663 261.997c0 54 -5.66699 91.001 -17 111.001s-36.333 30 -75 30c-36.667 0 -60.667 -10 -72 -30s-17 -56.667 -17 -110c0 -60 5.16699 -98.167 15.5 -114.5s34.833 -24.5 73.5 -24.5c39.333 0 64.5 8.16699 75.5 24.5
s16.5 54.166 16.5 113.499z" />
    <glyph glyph-name="thorn" unicode="&#x44e;" horiz-adv-x="880" 
d="M227 334l83 -0.00292969c0 76.667 19.333 129.334 58 158.001s106.667 43 204 43c109.333 0 180.5 -17.5 213.5 -52.5s49.5 -108.5 49.5 -220.5c0 -109.333 -16.667 -181.666 -50 -216.999s-104.333 -53 -213 -53c-98.667 0 -167 15.333 -205 46s-57 87.334 -57 170.001
h-83v-208h-172v525h172v-191zM663 261.997c0 54 -5.66699 91.001 -17 111.001s-36.333 30 -75 30c-36.667 0 -60.667 -10 -72 -30s-17 -56.667 -17 -110c0 -60 5.16699 -98.167 15.5 -114.5s34.833 -24.5 73.5 -24.5c39.333 0 64.5 8.16699 75.5 24.5
s16.5 54.166 16.5 113.499z" />
    <glyph glyph-name="ydieresis" unicode="&#xff;" horiz-adv-x="590" 
d="M363 298v107h-88c-23.333 0 -39.666 -4 -48.999 -12s-14 -21.667 -14 -41c0 -20 4.66699 -34 14 -42s25.666 -12 48.999 -12h88zM363 0l-0.000976562 178h-68l-82 -178h-187l103 194c-27.333 12 -47.666 29.667 -60.999 53c-15.333 26.667 -23 61.334 -23 104.001
c0 61.333 15 105.666 45 132.999s78.333 41 145 41h300v-525h-172z" />
    <glyph glyph-name="ydieresis" unicode="&#x44f;" horiz-adv-x="590" 
d="M363 298v107h-88c-23.333 0 -39.666 -4 -48.999 -12s-14 -21.667 -14 -41c0 -20 4.66699 -34 14 -42s25.666 -12 48.999 -12h88zM363 0l-0.000976562 178h-68l-82 -178h-187l103 194c-27.333 12 -47.666 29.667 -60.999 53c-15.333 26.667 -23 61.334 -23 104.001
c0 61.333 15 105.666 45 132.999s78.333 41 145 41h300v-525h-172z" />
    <glyph glyph-name="OE" unicode="&#x152;" horiz-adv-x="1188" 
d="M265 750l-0.000976562 -290h261v290h200v-290h186c78.667 0 136.834 -17.833 174.501 -53.5s56.5 -94.5 56.5 -176.5s-19.667 -141.333 -59 -178c-36.667 -34.667 -94 -52 -172 -52h-386v304h-261v-304h-200v750h200zM725.999 304l0.000976562 -148h139
c29.333 0 49.666 5 60.999 15s17 29 17 57c0 30 -5.5 50.167 -16.5 60.5s-31.5 15.5 -61.5 15.5h-139z" />
    <glyph glyph-name="OE" unicode="&#x40a;" horiz-adv-x="1188" 
d="M265 750l-0.000976562 -290h261v290h200v-290h186c78.667 0 136.834 -17.833 174.501 -53.5s56.5 -94.5 56.5 -176.5s-19.667 -141.333 -59 -178c-36.667 -34.667 -94 -52 -172 -52h-386v304h-261v-304h-200v750h200zM725.999 304l0.000976562 -148h139
c29.333 0 49.666 5 60.999 15s17 29 17 57c0 30 -5.5 50.167 -16.5 60.5s-31.5 15.5 -61.5 15.5h-139z" />
    <glyph glyph-name="oe" unicode="&#x153;" horiz-adv-x="923" 
d="M227 525v-177.001h161v177h172v-178h128c65.333 0 113.333 -13.667 144 -41s46 -71.666 46 -132.999c0 -62.667 -14.833 -107.167 -44.5 -133.5s-78.167 -39.5 -145.5 -39.5h-300v227h-161v-227h-172v525h172zM560 226.999v-107h88c23.333 0 39.666 4 48.999 12
s14 21.667 14 41c0 20 -4.66699 34 -14 42s-25.666 12 -48.999 12h-88z" />
    <glyph glyph-name="oe" unicode="&#x45a;" horiz-adv-x="923" 
d="M227 525v-177.001h161v177h172v-178h128c65.333 0 113.333 -13.667 144 -41s46 -71.666 46 -132.999c0 -62.667 -14.833 -107.167 -44.5 -133.5s-78.167 -39.5 -145.5 -39.5h-300v227h-161v-227h-172v525h172zM560 226.999v-107h88c23.333 0 39.666 4 48.999 12
s14 21.667 14 41c0 20 -4.66699 34 -14 42s-25.666 12 -48.999 12h-88z" />
    <glyph glyph-name="Scaron" unicode="&#x160;" horiz-adv-x="1214" 
d="M145 750h606.998v-290h186c78.667 0 136.834 -17.833 174.501 -53.5s56.5 -94.5 56.5 -176.5s-19.667 -141.333 -59 -178c-36.667 -34.667 -94 -52 -172 -52h-386v576h-217v-315c0 -84.667 -18 -150 -54 -196c-38 -48.667 -94.333 -73 -169 -73
c-22 0 -40.167 0.666992 -54.5 2s-30.166 3.66602 -47.499 6.99902v162c9.33301 -3.33301 19.833 -5.33301 31.5 -6s21.5 -1 29.5 -1c26.667 0 45.667 7.83301 57 23.5s17 41.834 17 78.501v492zM751.998 304l0.000976562 -148h139c29.333 0 49.666 5 60.999 15s17 29 17 57
c0 30 -5.5 50.167 -16.5 60.5s-31.5 15.5 -61.5 15.5h-139z" />
    <glyph glyph-name="Scaron" unicode="&#x409;" horiz-adv-x="1214" 
d="M145 750h606.998v-290h186c78.667 0 136.834 -17.833 174.501 -53.5s56.5 -94.5 56.5 -176.5s-19.667 -141.333 -59 -178c-36.667 -34.667 -94 -52 -172 -52h-386v576h-217v-315c0 -84.667 -18 -150 -54 -196c-38 -48.667 -94.333 -73 -169 -73
c-22 0 -40.167 0.666992 -54.5 2s-30.166 3.66602 -47.499 6.99902v162c9.33301 -3.33301 19.833 -5.33301 31.5 -6s21.5 -1 29.5 -1c26.667 0 45.667 7.83301 57 23.5s17 41.834 17 78.501v492zM751.998 304l0.000976562 -148h139c29.333 0 49.666 5 60.999 15s17 29 17 57
c0 30 -5.5 50.167 -16.5 60.5s-31.5 15.5 -61.5 15.5h-139z" />
    <glyph glyph-name="scaron" unicode="&#x161;" horiz-adv-x="949" 
d="M128 525h458v-178h128c65.333 0 113.333 -13.667 144 -41s46 -71.666 46 -132.999c0 -62.667 -14.833 -107.167 -44.5 -133.5s-78.167 -39.5 -145.5 -39.5h-300v399h-124v-169c0 -87.333 -18.333 -150 -55 -188c-32 -33.333 -79 -50 -141 -50
c-26 0 -50.667 1.33301 -74 4v124l35 -2c28.667 0 48.667 11 60 33c8.66699 17.333 13 44.666 13 81.999v292zM586 227v-107h88c23.333 0 39.666 4 48.999 12s14 21.667 14 41c0 20 -4.66699 34 -14 42s-25.666 12 -48.999 12h-88z" />
    <glyph glyph-name="scaron" unicode="&#x459;" horiz-adv-x="949" 
d="M128 525h458v-178h128c65.333 0 113.333 -13.667 144 -41s46 -71.666 46 -132.999c0 -62.667 -14.833 -107.167 -44.5 -133.5s-78.167 -39.5 -145.5 -39.5h-300v399h-124v-169c0 -87.333 -18.333 -150 -55 -188c-32 -33.333 -79 -50 -141 -50
c-26 0 -50.667 1.33301 -74 4v124l35 -2c28.667 0 48.667 11 60 33c8.66699 17.333 13 44.666 13 81.999v292zM586 227v-107h88c23.333 0 39.666 4 48.999 12s14 21.667 14 41c0 20 -4.66699 34 -14 42s-25.666 12 -48.999 12h-88z" />
    <glyph glyph-name="Ydieresis" unicode="&#x178;" horiz-adv-x="615" 
d="M227 126h161v399h172v-525h-202v-136h-101v136h-202v525h172v-399z" />
    <glyph glyph-name="Ydieresis" unicode="&#x45f;" horiz-adv-x="615" 
d="M227 126h161v399h172v-525h-202v-136h-101v136h-202v525h172v-399z" />
    <glyph glyph-name="florin" unicode="&#x192;" horiz-adv-x="457" 
d="M55 525h382v-126h-210v-399h-172v525zM419 748l-147 -130h-79l89 130h137z" />
    <glyph glyph-name="florin" unicode="&#x453;" horiz-adv-x="457" 
d="M55 525h382v-126h-210v-399h-172v525zM419 748l-147 -130h-79l89 130h137z" />
    <glyph glyph-name="endash" unicode="&#x2013;" horiz-adv-x="500" 
d="M0 334h500v-115h-500v115z" />
    <glyph glyph-name="emdash" unicode="&#x2014;" horiz-adv-x="1000" 
d="M0 334h1000v-115h-1000v115z" />
    <glyph glyph-name="quoteleft" unicode="&#x2018;" horiz-adv-x="264" 
d="M211 450h-161.999v164c0 52.667 11.333 89 34 109c25.333 22 71.333 33 138 33v-74c-28.667 0 -47.834 -4.83301 -57.501 -14.5s-14.5 -27.5 -14.5 -53.5h62v-164z" />
    <glyph glyph-name="quoteright" unicode="&#x2019;" horiz-adv-x="264" 
d="M56 750h161.999v-164c0 -52.667 -12 -89.5 -36 -110.5s-69.333 -31.5 -136 -31.5v74c28.667 0 47.834 4.83301 57.501 14.5s14.5 27.5 14.5 53.5h-62v164z" />
    <glyph glyph-name="quotesinglbase" unicode="&#x201a;" horiz-adv-x="360" 
d="M95 164h161.999v-164c0 -52.667 -12 -89.5 -36 -110.5s-69.333 -31.5 -136 -31.5v74c28.667 0 47.834 4.83301 57.501 14.5s14.5 27.5 14.5 53.5h-62v164z" />
    <glyph glyph-name="quotedblleft" unicode="&#x201c;" horiz-adv-x="489" 
d="M436 450h-161.999v164c0 52.667 11.333 89 34 109c25.333 22 71.333 33 138 33v-74c-28.667 0 -47.834 -4.83301 -57.501 -14.5s-14.5 -27.5 -14.5 -53.5h62v-164zM211.001 450h-161.999v164c0 52.667 11.333 89 34 109c25.333 22 71.333 33 138 33v-74
c-28.667 0 -47.834 -4.83301 -57.501 -14.5s-14.5 -27.5 -14.5 -53.5h62v-164z" />
    <glyph glyph-name="quotedblright" unicode="&#x201d;" horiz-adv-x="489" 
d="M56 750h161.999v-164c0 -52.667 -12 -89.5 -36 -110.5s-69.333 -31.5 -136 -31.5v74c28.667 0 47.834 4.83301 57.501 14.5s14.5 27.5 14.5 53.5h-62v164zM280.999 750h161.999v-164c0 -52.667 -12 -89.5 -36 -110.5s-69.333 -31.5 -136 -31.5v74
c28.667 0 47.834 4.83301 57.501 14.5s14.5 27.5 14.5 53.5h-62v164z" />
    <glyph glyph-name="quotedblbase" unicode="&#x201e;" horiz-adv-x="489" 
d="M54 164h161.999v-164c0 -52.667 -12 -89.5 -36 -110.5s-69.333 -31.5 -136 -31.5v74c28.667 0 47.834 4.83301 57.501 14.5s14.5 27.5 14.5 53.5h-62v164zM278.999 164h161.999v-164c0 -52.667 -12 -89.5 -36 -110.5s-69.333 -31.5 -136 -31.5v74
c28.667 0 47.834 4.83301 57.501 14.5s14.5 27.5 14.5 53.5h-62v164z" />
    <glyph glyph-name="dagger" unicode="&#x2020;" 
d="M446 750v-219h182v-132h-182v-626h-172v626h-182v132h182v219h172z" />
    <glyph glyph-name="daggerdbl" unicode="&#x2021;" 
d="M702 501l-196.001 -0.000976562c0 35.333 -5.16699 59 -15.5 71s-32.166 18 -65.499 18c-35.333 0 -59 -6 -71 -18s-18 -36 -18 -72v-79h190v-145h-190c0 -35.333 -2.66699 -60.166 -8 -74.499s-18.333 -26.5 -39 -36.5v-5h413v-160h-632v160
c28.667 0 47.334 10 56.001 30c6.66699 15.333 10 44 10 86h-89v145h89v108c0 84 19.333 142.333 58 175c42 35.333 119.333 53 232 53c111.333 0 185.666 -15.667 222.999 -47c35.333 -29.333 53 -87.333 53 -174v-35z" />
    <glyph glyph-name="bullet" unicode="&#x2022;" horiz-adv-x="600" 
d="M490 375c0 -51.333 -18.333 -95.333 -55 -132s-81 -55 -133 -55c-51.333 0 -95.333 18 -132 54s-55 80.333 -55 133c0 51.333 18.167 95.5 54.5 132.5s80.5 55.5 132.5 55.5s96.333 -18.333 133 -55s55 -81 55 -133z" />
    <glyph glyph-name="ellipsis" unicode="&#x2026;" horiz-adv-x="1000" 
d="M247 164v-164h-162v164h162zM581 164v-164h-162v164h162zM915 164v-164h-162v164h162z" />
    <glyph glyph-name="perthousand" unicode="&#x2030;" horiz-adv-x="1290" 
d="M1101 375c64 0 106.333 -7.33203 127 -21.999c26 -18 39 -55.667 39 -113v-110c0 -56.667 -13 -94.334 -39 -113.001c-21.333 -15.333 -63.333 -23 -126 -23s-104 7.33301 -124 22c-24 18 -36 55.667 -36 113v110c0 57.333 12 95 36 113c20.667 15.333 61.667 23 123 23z
M1101 288.001c-26.667 0 -43.168 -2.83203 -49.501 -8.49902s-9.5 -22.834 -9.5 -51.501v-83c0 -29.333 3.33301 -47.333 10 -54s23 -10 49 -10c28 0 45.333 2.66699 52 8c9.33301 7.33301 14 26 14 56v83c0 28 -3.66699 45 -11 51s-25.666 9 -54.999 9zM741.999 750.002
l-443 -750h-120l443 750h120zM717.999 375.002c64 0 106.333 -7.33203 127 -21.999c26 -18 39 -55.667 39 -113v-110c0 -56.667 -13 -94.334 -39 -113.001c-21.333 -15.333 -63.333 -23 -126 -23s-104 7.33301 -124 22c-24 18 -36 55.667 -36 113v110c0 57.333 12 95 36 113
c20.667 15.333 61.667 23 123 23zM717.999 288.003c-26.667 0 -43.168 -2.83203 -49.501 -8.49902s-9.5 -22.834 -9.5 -51.501v-83c0 -29.333 3.33301 -47.333 10 -54s23 -10 49 -10c28 0 45.333 2.66699 52 8c9.33301 7.33301 14 26 14 56v83c0 28 -3.66699 45 -11 51
s-25.666 9 -54.999 9zM181.998 756.004c64 0 106.333 -7.33203 127 -21.999c26 -18 39 -55.667 39 -113v-110c0 -56.667 -13 -94.334 -39 -113.001c-21.333 -15.333 -63.333 -23 -126 -23s-104 7.33301 -124 22c-24 18 -36 55.667 -36 113v110c0 57.333 12 95 36 113
c20.667 15.333 61.667 23 123 23zM181.998 669.005c-26.667 0 -43.168 -2.83203 -49.501 -8.49902s-9.5 -22.834 -9.5 -51.501v-83c0 -29.333 3.33301 -47.333 10 -54s23 -10 49 -10c28 0 45.333 2.66699 52 8c9.33301 7.33301 14 26 14 56v83c0 28 -3.66699 45 -11 51
s-25.666 9 -54.999 9z" />
    <glyph glyph-name="guilsinglleft" unicode="&#x2039;" horiz-adv-x="331" 
d="M172 515l113 -61l-96 -182l96 -169l-107 -66l-134 235z" />
    <glyph glyph-name="guilsinglright" unicode="&#x203a;" horiz-adv-x="330" 
d="M152 37l-113 61l96 182l-96 169l107 66l134 -235z" />
    <glyph glyph-name="trademark" unicode="&#x2122;" horiz-adv-x="897" 
d="M405 750h147l91 -239l91 239h147v-404h-93v321l-119 -321h-52l-116 321l-3 -321h-93v404zM13 750h348v-83h-123v-321h-102v321h-123v83z" />
    <glyph glyph-name=".null" horiz-adv-x="0" 
 />
    <glyph glyph-name="nonmarkingreturn" horiz-adv-x="360" 
 />
    </font>
</defs>
</svg>
